M48
; DRILL file {KiCad 9.0.2+dfsg-1} date 2026-09-26T13:12:30+0800
; FORMAT={-:-/ absolute / metric / decimal}
; #@! TF.CreationDate,2026-09-26T13:12:30+08:00
; #@! TF.GenerationSoftware,Kicad,Pcbnew,9.0.2+dfsg-1
; #@! TF.FileFunction,Plated,1,2,PTH
FMAT,2
METRIC
; #@! TA.AperFunction,Plated,PTH,ViaDrill
T1C0.300
; #@! TA.AperFunction,Plated,PTH,ComponentDrill
T2C0.600
; #@! TA.AperFunction,Plated,PTH,ComponentDrill
T3C0.800
; #@! TA.AperFunction,Plated,PTH,ComponentDrill
T4C0.900
; #@! TA.AperFunction,Plated,PTH,ComponentDrill
T5C1.000
; #@! TA.AperFunction,Plated,PTH,ComponentDrill
T6C1.100
%
G90
G05
T1
X65.025Y-112.7
X83.7Y-58.825
X86.4Y-70.8
X104.675Y-62.675
X105.95Y-69.85
X109.525Y-60.175
X109.7Y-69.575
X110.2Y-107.175
X110.325Y-84.875
X115.6Y-70.65
X116.25Y-69.5
X117.2Y-68.225
X117.525Y-65.65
X117.8Y-66.875
X119.775Y-60.331
X122.825Y-85.675
X123.075Y-78.525
X123.15Y-82.675
X126.975Y-113.4
X127.1Y-87.275
X131.675Y-77.275
X132.45Y-78.5
X133.15Y-79.8
X133.75Y-81.025
X133.775Y-75.975
X133.825Y-70.9
X134.125Y-156.45
X134.3Y-87.85
X134.325Y-113.425
X134.4Y-82.375
X135.175Y-83.6
X135.4Y-87.825
X136.45Y-144.375
X136.475Y-87.825
X137.425Y-87.725
X138.458Y-87.717
X139.786Y-87.655
X141.15Y-81.4
T2
X135.075Y-102.05
X135.075Y-103.55
T3
X61.075Y-52.47
X61.075Y-62.63
X62.425Y-65.55
X62.425Y-67.55
X64.075Y-52.47
X64.075Y-62.63
X67.389Y-112.509
X67.514Y-87.884
X67.864Y-100.359
X68.489Y-162.384
X68.839Y-126.109
X68.914Y-137.959
X69.529Y-149.684
X70.29Y-70.675
X75.009Y-112.509
X75.134Y-87.884
X75.484Y-100.359
X76.109Y-162.384
X76.459Y-126.109
X76.534Y-137.959
X77.149Y-149.684
X77.189Y-112.509
X77.464Y-87.884
X77.639Y-100.309
X78.274Y-162.384
X78.714Y-126.134
X78.739Y-137.959
X79.304Y-149.634
X80.45Y-70.675
X84.809Y-112.509
X85.084Y-87.884
X85.259Y-100.309
X85.894Y-162.384
X86.334Y-126.134
X86.359Y-137.959
X86.924Y-149.634
X87.064Y-112.434
X87.414Y-87.884
X87.514Y-100.359
X88.064Y-162.359
X88.539Y-126.209
X88.539Y-137.959
X89.029Y-149.584
X94.684Y-112.434
X95.034Y-87.884
X95.134Y-100.359
X95.684Y-162.359
X96.159Y-126.209
X96.159Y-137.959
X96.649Y-149.584
X97.039Y-112.409
X97.289Y-87.809
X97.339Y-100.359
X97.779Y-162.384
X98.364Y-126.209
X98.389Y-137.934
X98.764Y-149.559
X104.09Y-84.25
X104.659Y-112.409
X104.909Y-87.809
X104.959Y-100.359
X105.399Y-162.384
X105.984Y-126.209
X106.009Y-137.934
X106.384Y-149.559
X107.589Y-162.434
X108.164Y-137.934
X108.214Y-126.134
X108.564Y-149.634
X109.264Y-99.634
X114.25Y-84.25
X115.209Y-162.434
X115.784Y-137.934
X115.834Y-126.134
X116.184Y-149.634
X116.884Y-99.634
X117.339Y-111.234
X117.404Y-162.434
X117.629Y-88.134
X118.064Y-126.134
X118.064Y-137.934
X118.389Y-149.659
X119.164Y-99.634
X123.85Y-69.075
X123.85Y-71.575
X124.175Y-74.1
X124.175Y-76.6
X124.959Y-111.234
X125.024Y-162.434
X125.249Y-88.134
X125.684Y-126.134
X125.684Y-137.934
X126.009Y-149.659
X126.784Y-99.634
X127.189Y-162.484
X127.37Y-65.175
X127.465Y-57.875
X127.465Y-61.4
X127.495Y-54.375
X127.889Y-126.134
X128.014Y-137.984
X128.214Y-149.659
X128.964Y-99.609
X134.809Y-162.484
X135.509Y-126.134
X135.634Y-137.984
X135.834Y-149.659
X136.584Y-99.609
X137.53Y-65.175
X137.625Y-57.875
X137.625Y-61.4
X137.655Y-54.375
T4
X128.625Y-105.525
X128.625Y-108.825
X131.125Y-105.525
X131.125Y-108.825
X133.625Y-105.525
X133.625Y-108.825
T5
X61.75Y-139.375
X61.75Y-141.915
X61.75Y-144.455
X61.75Y-146.995
X61.75Y-149.535
X61.75Y-152.075
X61.75Y-154.615
X61.9Y-73.775
X61.955Y-49.325
X64.44Y-73.775
X64.495Y-49.325
X66.98Y-73.775
X67.035Y-49.325
X69.52Y-73.775
X69.575Y-49.325
X72.06Y-73.775
X72.115Y-49.325
X74.6Y-73.775
X74.655Y-49.325
X77.14Y-73.775
X77.195Y-49.325
X79.68Y-73.775
X79.735Y-49.325
X82.22Y-73.775
X82.275Y-49.325
X84.76Y-73.775
X84.815Y-49.325
X87.3Y-73.775
X87.355Y-49.325
X89.84Y-73.775
X89.895Y-49.325
X92.38Y-73.775
X92.435Y-49.325
X94.92Y-73.775
X94.975Y-49.325
X97.46Y-73.775
X97.515Y-49.325
X100.0Y-73.775
X100.055Y-49.325
X102.54Y-73.775
X102.595Y-49.325
X105.08Y-73.775
X105.135Y-49.325
X107.62Y-73.775
X107.675Y-49.325
T6
X65.224Y-79.134
X65.224Y-83.634
X65.249Y-104.359
X65.249Y-108.859
X65.299Y-91.809
X65.299Y-96.309
X66.574Y-153.559
X66.574Y-158.059
X66.599Y-118.134
X66.599Y-122.634
X66.599Y-129.834
X66.599Y-134.334
X66.624Y-141.659
X66.624Y-146.159
X71.724Y-79.134
X71.724Y-83.634
X71.749Y-104.359
X71.749Y-108.859
X71.799Y-91.809
X71.799Y-96.309
X73.074Y-153.559
X73.074Y-158.059
X73.099Y-118.134
X73.099Y-122.634
X73.099Y-129.834
X73.099Y-134.334
X73.124Y-141.659
X73.124Y-146.159
X74.849Y-79.159
X74.849Y-83.659
X74.849Y-104.359
X74.849Y-108.859
X74.949Y-91.859
X74.949Y-96.359
X76.099Y-129.909
X76.099Y-134.409
X76.149Y-118.134
X76.149Y-122.634
X76.149Y-141.684
X76.149Y-146.184
X76.174Y-153.534
X76.174Y-158.034
X81.349Y-79.159
X81.349Y-83.659
X81.349Y-104.359
X81.349Y-108.859
X81.449Y-91.859
X81.449Y-96.359
X82.599Y-129.909
X82.599Y-134.409
X82.649Y-118.134
X82.649Y-122.634
X82.649Y-141.684
X82.649Y-146.184
X82.674Y-153.534
X82.674Y-158.034
X84.399Y-79.159
X84.399Y-83.659
X84.524Y-91.859
X84.524Y-96.359
X84.524Y-104.359
X84.524Y-108.859
X85.649Y-129.859
X85.649Y-134.359
X85.699Y-153.559
X85.699Y-158.059
X85.724Y-118.134
X85.724Y-122.634
X85.774Y-141.684
X85.774Y-146.184
X90.899Y-79.159
X90.899Y-83.659
X91.024Y-91.859
X91.024Y-96.359
X91.024Y-104.359
X91.024Y-108.859
X92.149Y-129.859
X92.149Y-134.359
X92.199Y-153.559
X92.199Y-158.059
X92.224Y-118.134
X92.224Y-122.634
X92.274Y-141.684
X92.274Y-146.184
X93.974Y-79.184
X93.974Y-83.684
X94.049Y-91.859
X94.049Y-96.359
X94.124Y-104.334
X94.124Y-108.834
X95.324Y-141.709
X95.324Y-146.209
X95.324Y-153.534
X95.324Y-158.034
X95.349Y-118.134
X95.349Y-122.634
X95.374Y-129.959
X95.374Y-134.459
X100.474Y-79.184
X100.474Y-83.684
X100.549Y-91.859
X100.549Y-96.359
X100.624Y-104.334
X100.624Y-108.834
X101.824Y-141.709
X101.824Y-146.209
X101.824Y-153.534
X101.824Y-158.034
X101.849Y-118.134
X101.849Y-122.634
X101.874Y-129.959
X101.874Y-134.459
X104.974Y-153.484
X104.974Y-157.984
X105.099Y-118.134
X105.099Y-122.634
X105.174Y-129.759
X105.174Y-134.259
X105.174Y-141.734
X105.174Y-146.234
X108.274Y-91.959
X108.274Y-96.459
X111.474Y-153.484
X111.474Y-157.984
X111.599Y-118.134
X111.599Y-122.634
X111.674Y-129.759
X111.674Y-134.259
X111.674Y-141.734
X111.674Y-146.234
X114.499Y-153.484
X114.499Y-157.984
X114.699Y-118.109
X114.699Y-122.609
X114.774Y-91.959
X114.774Y-96.459
X114.849Y-141.809
X114.849Y-146.309
X114.924Y-129.609
X114.924Y-134.109
X117.874Y-91.934
X117.874Y-96.434
X117.874Y-103.659
X117.874Y-108.159
X117.949Y-80.509
X117.949Y-85.009
X120.999Y-153.484
X120.999Y-157.984
X121.199Y-118.109
X121.199Y-122.609
X121.349Y-141.809
X121.349Y-146.309
X121.424Y-129.609
X121.424Y-134.109
X124.074Y-153.484
X124.074Y-157.984
X124.249Y-118.109
X124.249Y-122.609
X124.349Y-141.709
X124.349Y-146.209
X124.374Y-91.934
X124.374Y-96.434
X124.374Y-103.659
X124.374Y-108.159
X124.449Y-80.509
X124.449Y-85.009
X124.449Y-129.809
X124.449Y-134.309
X127.449Y-91.934
X127.449Y-96.434
X130.574Y-153.484
X130.574Y-157.984
X130.749Y-118.109
X130.749Y-122.609
X130.849Y-141.709
X130.849Y-146.209
X130.949Y-129.809
X130.949Y-134.309
X133.949Y-91.934
X133.949Y-96.434
M30
