%TF.GenerationSoftware,KiCad,Pcbnew,9.0.2+dfsg-1*%
%TF.CreationDate,2026-09-08T20:07:07+08:00*%
%TF.ProjectId,SCICAL,53434943-414c-42e6-9b69-6361645f7063,rev?*%
%TF.SameCoordinates,Original*%
%TF.FileFunction,Soldermask,Bot*%
%TF.FilePolarity,Negative*%
%FSLAX46Y46*%
G04 Gerber Fmt 4.6, Leading zero omitted, Abs format (unit mm)*
G04 Created by KiCad (PCBNEW 9.0.2+dfsg-1) date 2026-09-08 20:07:07*
%MOMM*%
%LPD*%
G01*
G04 APERTURE LIST*
G04 Aperture macros list*
%AMRoundRect*
0 Rectangle with rounded corners*
0 $1 Rounding radius*
0 $2 $3 $4 $5 $6 $7 $8 $9 X,Y pos of 4 corners*
0 Add a 4 corners polygon primitive as box body*
4,1,4,$2,$3,$4,$5,$6,$7,$8,$9,$2,$3,0*
0 Add four circle primitives for the rounded corners*
1,1,$1+$1,$2,$3*
1,1,$1+$1,$4,$5*
1,1,$1+$1,$6,$7*
1,1,$1+$1,$8,$9*
0 Add four rect primitives between the rounded corners*
20,1,$1+$1,$2,$3,$4,$5,0*
20,1,$1+$1,$4,$5,$6,$7,0*
20,1,$1+$1,$6,$7,$8,$9,0*
20,1,$1+$1,$8,$9,$2,$3,0*%
G04 Aperture macros list end*
%ADD10C,2.000000*%
%ADD11C,1.600000*%
%ADD12RoundRect,0.250000X-0.550000X-0.550000X0.550000X-0.550000X0.550000X0.550000X-0.550000X0.550000X0*%
%ADD13RoundRect,0.250000X-0.450000X-0.450000X0.450000X-0.450000X0.450000X0.450000X-0.450000X0.450000X0*%
%ADD14C,1.400000*%
%ADD15R,1.700000X1.700000*%
%ADD16C,1.700000*%
%ADD17RoundRect,0.250000X0.250000X0.750000X-0.250000X0.750000X-0.250000X-0.750000X0.250000X-0.750000X0*%
%ADD18C,1.200000*%
%ADD19RoundRect,0.250000X-0.750000X0.250000X-0.750000X-0.250000X0.750000X-0.250000X0.750000X0.250000X0*%
G04 APERTURE END LIST*
D10*
%TO.C,PLUS1*%
X95324000Y-141709000D03*
X101824000Y-141709000D03*
X95324000Y-146209000D03*
X101824000Y-146209000D03*
%TD*%
%TO.C,1/X1*%
X65249000Y-104359000D03*
X71749000Y-104359000D03*
X65249000Y-108859000D03*
X71749000Y-108859000D03*
%TD*%
D11*
%TO.C,R4*%
X137625000Y-57875000D03*
X127465000Y-57875000D03*
%TD*%
D10*
%TO.C,NINE1*%
X85774000Y-141684000D03*
X92274000Y-141684000D03*
X85774000Y-146184000D03*
X92274000Y-146184000D03*
%TD*%
D12*
%TO.C,D37*%
X98764000Y-149559000D03*
D11*
X106384000Y-149559000D03*
%TD*%
D12*
%TO.C,D12*%
X97039000Y-112409000D03*
D11*
X104659000Y-112409000D03*
%TD*%
D10*
%TO.C,ON/OFF1*%
X105174000Y-141734000D03*
X111674000Y-141734000D03*
X105174000Y-146234000D03*
X111674000Y-146234000D03*
%TD*%
%TO.C,UP1*%
X117949000Y-80509000D03*
X124449000Y-80509000D03*
X117949000Y-85009000D03*
X124449000Y-85009000D03*
%TD*%
%TO.C,TWO1*%
X76149000Y-118134000D03*
X82649000Y-118134000D03*
X76149000Y-122634000D03*
X82649000Y-122634000D03*
%TD*%
%TO.C,EXP1*%
X114849000Y-141809000D03*
X121349000Y-141809000D03*
X114849000Y-146309000D03*
X121349000Y-146309000D03*
%TD*%
D12*
%TO.C,D25*%
X78714000Y-126134000D03*
D11*
X86334000Y-126134000D03*
%TD*%
D12*
%TO.C,D32*%
X127889000Y-126134000D03*
D11*
X135509000Y-126134000D03*
%TD*%
D12*
%TO.C,D43*%
X107589000Y-162434000D03*
D11*
X115209000Y-162434000D03*
%TD*%
D12*
%TO.C,D17*%
X117339000Y-111234000D03*
D11*
X124959000Y-111234000D03*
%TD*%
D10*
%TO.C,DELETE1*%
X114699000Y-118109000D03*
X121199000Y-118109000D03*
X114699000Y-122609000D03*
X121199000Y-122609000D03*
%TD*%
D12*
%TO.C,D10*%
X87064000Y-112434000D03*
D11*
X94684000Y-112434000D03*
%TD*%
D10*
%TO.C,FIVE1*%
X76099000Y-129909000D03*
X82599000Y-129909000D03*
X76099000Y-134409000D03*
X82599000Y-134409000D03*
%TD*%
%TO.C,ONE1*%
X66599000Y-118134000D03*
X73099000Y-118134000D03*
X66599000Y-122634000D03*
X73099000Y-122634000D03*
%TD*%
%TO.C,SETUP1*%
X114499000Y-153484000D03*
X120999000Y-153484000D03*
X114499000Y-157984000D03*
X120999000Y-157984000D03*
%TD*%
%TO.C,^2*%
X84524000Y-91859000D03*
X91024000Y-91859000D03*
X84524000Y-96359000D03*
X91024000Y-96359000D03*
%TD*%
D11*
%TO.C,R2*%
X137625000Y-61400000D03*
X127465000Y-61400000D03*
%TD*%
D10*
%TO.C,MENU/SELECT1*%
X117874000Y-91934000D03*
X124374000Y-91934000D03*
X117874000Y-96434000D03*
X124374000Y-96434000D03*
%TD*%
%TO.C,EIGHT1*%
X76149000Y-141684000D03*
X82649000Y-141684000D03*
X76149000Y-146184000D03*
X82649000Y-146184000D03*
%TD*%
%TO.C,POINT1*%
X66574000Y-153559000D03*
X73074000Y-153559000D03*
X66574000Y-158059000D03*
X73074000Y-158059000D03*
%TD*%
D12*
%TO.C,D8*%
X77189000Y-112509000D03*
D11*
X84809000Y-112509000D03*
%TD*%
D13*
%TO.C,SW1*%
X128625000Y-105525000D03*
D14*
X131125000Y-105525000D03*
X133625000Y-105525000D03*
X133625000Y-108825000D03*
X131125000Y-108825000D03*
X128625000Y-108825000D03*
%TD*%
D10*
%TO.C,X^Y1*%
X94049000Y-91859000D03*
X100549000Y-91859000D03*
X94049000Y-96359000D03*
X100549000Y-96359000D03*
%TD*%
D12*
%TO.C,D39*%
X118389000Y-149659000D03*
D11*
X126009000Y-149659000D03*
%TD*%
D10*
%TO.C,(1*%
X84524000Y-104359000D03*
X91024000Y-104359000D03*
X84524000Y-108859000D03*
X91024000Y-108859000D03*
%TD*%
%TO.C,LEFT1*%
X108274000Y-91959000D03*
X114774000Y-91959000D03*
X108274000Y-96459000D03*
X114774000Y-96459000D03*
%TD*%
%TO.C,DOWN1*%
X117874000Y-103659000D03*
X124374000Y-103659000D03*
X117874000Y-108159000D03*
X124374000Y-108159000D03*
%TD*%
D12*
%TO.C,D11*%
X97339000Y-100359000D03*
D11*
X104959000Y-100359000D03*
%TD*%
D12*
%TO.C,D42*%
X97779000Y-162384000D03*
D11*
X105399000Y-162384000D03*
%TD*%
D10*
%TO.C,G2*%
X124449000Y-129809000D03*
X130949000Y-129809000D03*
X124449000Y-134309000D03*
X130949000Y-134309000D03*
%TD*%
D12*
%TO.C,D9*%
X87514000Y-100359000D03*
D11*
X95134000Y-100359000D03*
%TD*%
D12*
%TO.C,D41*%
X88064000Y-162359000D03*
D11*
X95684000Y-162359000D03*
%TD*%
D12*
%TO.C,D30*%
X108214000Y-126134000D03*
D11*
X115834000Y-126134000D03*
%TD*%
%TO.C,R1*%
X127370000Y-65175000D03*
X137530000Y-65175000D03*
%TD*%
D10*
%TO.C,LOG1*%
X93974000Y-79184000D03*
X100474000Y-79184000D03*
X93974000Y-83684000D03*
X100474000Y-83684000D03*
%TD*%
D12*
%TO.C,D20*%
X69529000Y-149684000D03*
D11*
X77149000Y-149684000D03*
%TD*%
D12*
%TO.C,D5*%
X67864000Y-100359000D03*
D11*
X75484000Y-100359000D03*
%TD*%
D12*
%TO.C,D14*%
X119164000Y-99634000D03*
D11*
X126784000Y-99634000D03*
%TD*%
D12*
%TO.C,D28*%
X88539000Y-126209000D03*
D11*
X96159000Y-126209000D03*
%TD*%
%TO.C,R5*%
X127495000Y-54375000D03*
X137655000Y-54375000D03*
%TD*%
D10*
%TO.C,LN1*%
X65299000Y-91809000D03*
X71799000Y-91809000D03*
X65299000Y-96309000D03*
X71799000Y-96309000D03*
%TD*%
%TO.C,SIX1*%
X85649000Y-129859000D03*
X92149000Y-129859000D03*
X85649000Y-134359000D03*
X92149000Y-134359000D03*
%TD*%
D12*
%TO.C,D31*%
X118064000Y-126134000D03*
D11*
X125684000Y-126134000D03*
%TD*%
D15*
%TO.C,J3*%
X107620000Y-73775000D03*
D16*
X105080000Y-73775000D03*
X102540000Y-73775000D03*
X100000000Y-73775000D03*
X97460000Y-73775000D03*
X94920000Y-73775000D03*
X92380000Y-73775000D03*
X89840000Y-73775000D03*
X87300000Y-73775000D03*
X84760000Y-73775000D03*
X82220000Y-73775000D03*
X79680000Y-73775000D03*
X77140000Y-73775000D03*
X74600000Y-73775000D03*
X72060000Y-73775000D03*
X69520000Y-73775000D03*
X66980000Y-73775000D03*
X64440000Y-73775000D03*
X61900000Y-73775000D03*
%TD*%
D12*
%TO.C,D3*%
X87414000Y-87884000D03*
D11*
X95034000Y-87884000D03*
%TD*%
D10*
%TO.C,ANS1*%
X105174000Y-129759000D03*
X111674000Y-129759000D03*
X105174000Y-134259000D03*
X111674000Y-134259000D03*
%TD*%
%TO.C,G3*%
X124349000Y-141709000D03*
X130849000Y-141709000D03*
X124349000Y-146209000D03*
X130849000Y-146209000D03*
%TD*%
D12*
%TO.C,D1*%
X67514000Y-87884000D03*
D11*
X75134000Y-87884000D03*
%TD*%
D12*
%TO.C,D24*%
X78739000Y-137959000D03*
D11*
X86359000Y-137959000D03*
%TD*%
D10*
%TO.C,G1*%
X124249000Y-118109000D03*
X130749000Y-118109000D03*
X124249000Y-122609000D03*
X130749000Y-122609000D03*
%TD*%
%TO.C,MULTIPLY1*%
X95374000Y-129959000D03*
X101874000Y-129959000D03*
X95374000Y-134459000D03*
X101874000Y-134459000D03*
%TD*%
D12*
%TO.C,D6*%
X67389000Y-112509000D03*
D11*
X75009000Y-112509000D03*
%TD*%
D10*
%TO.C,RIGHT1*%
X127449000Y-91934000D03*
X133949000Y-91934000D03*
X127449000Y-96434000D03*
X133949000Y-96434000D03*
%TD*%
%TO.C,AC1*%
X105099000Y-118134000D03*
X111599000Y-118134000D03*
X105099000Y-122634000D03*
X111599000Y-122634000D03*
%TD*%
D12*
%TO.C,D18*%
X68839000Y-126109000D03*
D11*
X76459000Y-126109000D03*
%TD*%
D10*
%TO.C,SEVEN1*%
X66624000Y-141659000D03*
X73124000Y-141659000D03*
X66624000Y-146159000D03*
X73124000Y-146159000D03*
%TD*%
D12*
%TO.C,D35*%
X118064000Y-137934000D03*
D11*
X125684000Y-137934000D03*
%TD*%
D10*
%TO.C,)1*%
X94124000Y-104334000D03*
X100624000Y-104334000D03*
X94124000Y-108834000D03*
X100624000Y-108834000D03*
%TD*%
D12*
%TO.C,D40*%
X128214000Y-149659000D03*
D11*
X135834000Y-149659000D03*
%TD*%
D12*
%TO.C,D44*%
X117404000Y-162434000D03*
D11*
X125024000Y-162434000D03*
%TD*%
D12*
%TO.C,D2*%
X77464000Y-87884000D03*
D11*
X85084000Y-87884000D03*
%TD*%
D10*
%TO.C,EQUAL1*%
X85699000Y-153559000D03*
X92199000Y-153559000D03*
X85699000Y-158059000D03*
X92199000Y-158059000D03*
%TD*%
D12*
%TO.C,D38*%
X108564000Y-149634000D03*
D11*
X116184000Y-149634000D03*
%TD*%
D12*
%TO.C,D13*%
X109264000Y-99634000D03*
D11*
X116884000Y-99634000D03*
%TD*%
D10*
%TO.C,COS1*%
X74849000Y-79159000D03*
X81349000Y-79159000D03*
X74849000Y-83659000D03*
X81349000Y-83659000D03*
%TD*%
%TO.C,TAN1*%
X84399000Y-79159000D03*
X90899000Y-79159000D03*
X84399000Y-83659000D03*
X90899000Y-83659000D03*
%TD*%
%TO.C,MODE1*%
X104974000Y-153484000D03*
X111474000Y-153484000D03*
X104974000Y-157984000D03*
X111474000Y-157984000D03*
%TD*%
D12*
%TO.C,D21*%
X68489000Y-162384000D03*
D11*
X76109000Y-162384000D03*
%TD*%
D12*
%TO.C,D22*%
X78274000Y-162384000D03*
D11*
X85894000Y-162384000D03*
%TD*%
D10*
%TO.C,SIN1*%
X65224000Y-79134000D03*
X71724000Y-79134000D03*
X65224000Y-83634000D03*
X71724000Y-83634000D03*
%TD*%
D11*
%TO.C,C4*%
X62425000Y-67550000D03*
X62425000Y-65550000D03*
%TD*%
D12*
%TO.C,D45*%
X127189000Y-162484000D03*
D11*
X134809000Y-162484000D03*
%TD*%
D10*
%TO.C,BACK1*%
X124074000Y-153484000D03*
X130574000Y-153484000D03*
X124074000Y-157984000D03*
X130574000Y-157984000D03*
%TD*%
D12*
%TO.C,D19*%
X68914000Y-137959000D03*
D11*
X76534000Y-137959000D03*
%TD*%
D12*
%TO.C,D36*%
X128014000Y-137984000D03*
D11*
X135634000Y-137984000D03*
%TD*%
D12*
%TO.C,D26*%
X89029000Y-149584000D03*
D11*
X96649000Y-149584000D03*
%TD*%
D12*
%TO.C,D33*%
X98389000Y-137934000D03*
D11*
X106009000Y-137934000D03*
%TD*%
D12*
%TO.C,D7*%
X77639000Y-100309000D03*
D11*
X85259000Y-100309000D03*
%TD*%
D10*
%TO.C,MINUS1*%
X95324000Y-153534000D03*
X101824000Y-153534000D03*
X95324000Y-158034000D03*
X101824000Y-158034000D03*
%TD*%
%TO.C,ZERO1*%
X76174000Y-153534000D03*
X82674000Y-153534000D03*
X76174000Y-158034000D03*
X82674000Y-158034000D03*
%TD*%
D12*
%TO.C,D34*%
X108164000Y-137934000D03*
D11*
X115784000Y-137934000D03*
%TD*%
D12*
%TO.C,D4*%
X97289000Y-87809000D03*
D11*
X104909000Y-87809000D03*
%TD*%
D10*
%TO.C,SQUAREROOT1*%
X74949000Y-91859000D03*
X81449000Y-91859000D03*
X74949000Y-96359000D03*
X81449000Y-96359000D03*
%TD*%
D12*
%TO.C,D23*%
X79304000Y-149634000D03*
D11*
X86924000Y-149634000D03*
%TD*%
D10*
%TO.C,THREE1*%
X85724000Y-118134000D03*
X92224000Y-118134000D03*
X85724000Y-122634000D03*
X92224000Y-122634000D03*
%TD*%
D15*
%TO.C,J4*%
X107675000Y-49325000D03*
D16*
X105135000Y-49325000D03*
X102595000Y-49325000D03*
X100055000Y-49325000D03*
X97515000Y-49325000D03*
X94975000Y-49325000D03*
X92435000Y-49325000D03*
X89895000Y-49325000D03*
X87355000Y-49325000D03*
X84815000Y-49325000D03*
X82275000Y-49325000D03*
X79735000Y-49325000D03*
X77195000Y-49325000D03*
X74655000Y-49325000D03*
X72115000Y-49325000D03*
X69575000Y-49325000D03*
X67035000Y-49325000D03*
X64495000Y-49325000D03*
X61955000Y-49325000D03*
%TD*%
D10*
%TO.C,ENG1*%
X114924000Y-129609000D03*
X121424000Y-129609000D03*
X114924000Y-134109000D03*
X121424000Y-134109000D03*
%TD*%
%TO.C,FOUR1*%
X66599000Y-129834000D03*
X73099000Y-129834000D03*
X66599000Y-134334000D03*
X73099000Y-134334000D03*
%TD*%
D12*
%TO.C,D29*%
X98364000Y-126209000D03*
D11*
X105984000Y-126209000D03*
%TD*%
D10*
%TO.C,/1*%
X95349000Y-118134000D03*
X101849000Y-118134000D03*
X95349000Y-122634000D03*
X101849000Y-122634000D03*
%TD*%
D12*
%TO.C,D27*%
X88539000Y-137959000D03*
D11*
X96159000Y-137959000D03*
%TD*%
D12*
%TO.C,D16*%
X128964000Y-99609000D03*
D11*
X136584000Y-99609000D03*
%TD*%
D12*
%TO.C,D15*%
X117629000Y-88134000D03*
D11*
X125249000Y-88134000D03*
%TD*%
D17*
%TO.C,J17*%
X112050000Y-67425000D03*
%TD*%
%TO.C,J5*%
X141050000Y-70200000D03*
%TD*%
D11*
%TO.C,C1*%
X123850000Y-69075000D03*
X123850000Y-71575000D03*
%TD*%
D17*
%TO.C,J13*%
X118650000Y-49050000D03*
%TD*%
D18*
%TO.C,C3*%
X135075000Y-103550000D03*
X135075000Y-102050000D03*
%TD*%
D17*
%TO.C,J21*%
X124125000Y-54700000D03*
%TD*%
D19*
%TO.C,J15*%
X141025000Y-59975000D03*
%TD*%
D17*
%TO.C,J20*%
X116550000Y-49050000D03*
%TD*%
%TO.C,J18*%
X114025000Y-66075000D03*
%TD*%
%TO.C,J14*%
X126375000Y-49000000D03*
%TD*%
%TO.C,J22*%
X115150000Y-54825000D03*
%TD*%
D19*
%TO.C,J8*%
X141075000Y-56175000D03*
%TD*%
D17*
%TO.C,J6*%
X117725000Y-54775000D03*
%TD*%
%TO.C,J12*%
X134925000Y-49000000D03*
%TD*%
%TO.C,J10*%
X111375000Y-49075000D03*
%TD*%
%TO.C,J2*%
X121850000Y-54725000D03*
%TD*%
%TO.C,J9*%
X137825000Y-49050000D03*
%TD*%
%TO.C,J1*%
X123650000Y-49000000D03*
%TD*%
%TO.C,J19*%
X121350000Y-49025000D03*
%TD*%
%TO.C,J11*%
X129200000Y-48975000D03*
%TD*%
%TO.C,J7*%
X132025000Y-49025000D03*
%TD*%
%TO.C,J16*%
X113925000Y-49075000D03*
%TD*%
D11*
%TO.C,C2*%
X124175000Y-76600000D03*
X124175000Y-74100000D03*
%TD*%
D10*
%TO.C,HYP1*%
X74849000Y-104359000D03*
X81349000Y-104359000D03*
X74849000Y-108859000D03*
X81349000Y-108859000D03*
%TD*%
M02*
