%TF.GenerationSoftware,KiCad,Pcbnew,9.0.2+dfsg-1*%
%TF.CreationDate,2026-09-08T20:07:07+08:00*%
%TF.ProjectId,SCICAL,53434943-414c-42e6-9b69-6361645f7063,rev?*%
%TF.SameCoordinates,Original*%
%TF.FileFunction,Legend,Bot*%
%TF.FilePolarity,Positive*%
%FSLAX46Y46*%
G04 Gerber Fmt 4.6, Leading zero omitted, Abs format (unit mm)*
G04 Created by KiCad (PCBNEW 9.0.2+dfsg-1) date 2026-09-08 20:07:07*
%MOMM*%
%LPD*%
G01*
G04 APERTURE LIST*
%ADD10C,0.100000*%
%ADD11C,0.120000*%
G04 APERTURE END LIST*
D10*
X112671115Y-70322419D02*
X112671115Y-69322419D01*
X112671115Y-69322419D02*
X112099687Y-70322419D01*
X112099687Y-70322419D02*
X112099687Y-69322419D01*
X111052068Y-70227180D02*
X111099687Y-70274800D01*
X111099687Y-70274800D02*
X111242544Y-70322419D01*
X111242544Y-70322419D02*
X111337782Y-70322419D01*
X111337782Y-70322419D02*
X111480639Y-70274800D01*
X111480639Y-70274800D02*
X111575877Y-70179561D01*
X111575877Y-70179561D02*
X111623496Y-70084323D01*
X111623496Y-70084323D02*
X111671115Y-69893847D01*
X111671115Y-69893847D02*
X111671115Y-69750990D01*
X111671115Y-69750990D02*
X111623496Y-69560514D01*
X111623496Y-69560514D02*
X111575877Y-69465276D01*
X111575877Y-69465276D02*
X111480639Y-69370038D01*
X111480639Y-69370038D02*
X111337782Y-69322419D01*
X111337782Y-69322419D02*
X111242544Y-69322419D01*
X111242544Y-69322419D02*
X111099687Y-69370038D01*
X111099687Y-69370038D02*
X111052068Y-69417657D01*
X115346115Y-68847419D02*
X115346115Y-67847419D01*
X115346115Y-67847419D02*
X114774687Y-68847419D01*
X114774687Y-68847419D02*
X114774687Y-67847419D01*
X113727068Y-68752180D02*
X113774687Y-68799800D01*
X113774687Y-68799800D02*
X113917544Y-68847419D01*
X113917544Y-68847419D02*
X114012782Y-68847419D01*
X114012782Y-68847419D02*
X114155639Y-68799800D01*
X114155639Y-68799800D02*
X114250877Y-68704561D01*
X114250877Y-68704561D02*
X114298496Y-68609323D01*
X114298496Y-68609323D02*
X114346115Y-68418847D01*
X114346115Y-68418847D02*
X114346115Y-68275990D01*
X114346115Y-68275990D02*
X114298496Y-68085514D01*
X114298496Y-68085514D02*
X114250877Y-67990276D01*
X114250877Y-67990276D02*
X114155639Y-67895038D01*
X114155639Y-67895038D02*
X114012782Y-67847419D01*
X114012782Y-67847419D02*
X113917544Y-67847419D01*
X113917544Y-67847419D02*
X113774687Y-67895038D01*
X113774687Y-67895038D02*
X113727068Y-67942657D01*
X111200000Y-65950000D02*
X112925000Y-65950000D01*
X112925000Y-68900000D01*
X111200000Y-68900000D01*
X111200000Y-65950000D01*
X113125000Y-64600000D02*
X114900000Y-64600000D01*
X114900000Y-67575000D01*
X113125000Y-67575000D01*
X113125000Y-64600000D01*
X138096115Y-144822419D02*
X138096115Y-143822419D01*
X138096115Y-143822419D02*
X137762782Y-144536704D01*
X137762782Y-144536704D02*
X137429449Y-143822419D01*
X137429449Y-143822419D02*
X137429449Y-144822419D01*
X137048496Y-143822419D02*
X136429449Y-143822419D01*
X136429449Y-143822419D02*
X136762782Y-144203371D01*
X136762782Y-144203371D02*
X136619925Y-144203371D01*
X136619925Y-144203371D02*
X136524687Y-144250990D01*
X136524687Y-144250990D02*
X136477068Y-144298609D01*
X136477068Y-144298609D02*
X136429449Y-144393847D01*
X136429449Y-144393847D02*
X136429449Y-144631942D01*
X136429449Y-144631942D02*
X136477068Y-144727180D01*
X136477068Y-144727180D02*
X136524687Y-144774800D01*
X136524687Y-144774800D02*
X136619925Y-144822419D01*
X136619925Y-144822419D02*
X136905639Y-144822419D01*
X136905639Y-144822419D02*
X137000877Y-144774800D01*
X137000877Y-144774800D02*
X137048496Y-144727180D01*
X63446115Y-147647419D02*
X63446115Y-146647419D01*
X63446115Y-146647419D02*
X63112782Y-147361704D01*
X63112782Y-147361704D02*
X62779449Y-146647419D01*
X62779449Y-146647419D02*
X62779449Y-147647419D01*
X62398496Y-146647419D02*
X61779449Y-146647419D01*
X61779449Y-146647419D02*
X62112782Y-147028371D01*
X62112782Y-147028371D02*
X61969925Y-147028371D01*
X61969925Y-147028371D02*
X61874687Y-147075990D01*
X61874687Y-147075990D02*
X61827068Y-147123609D01*
X61827068Y-147123609D02*
X61779449Y-147218847D01*
X61779449Y-147218847D02*
X61779449Y-147456942D01*
X61779449Y-147456942D02*
X61827068Y-147552180D01*
X61827068Y-147552180D02*
X61874687Y-147599800D01*
X61874687Y-147599800D02*
X61969925Y-147647419D01*
X61969925Y-147647419D02*
X62255639Y-147647419D01*
X62255639Y-147647419D02*
X62350877Y-147599800D01*
X62350877Y-147599800D02*
X62398496Y-147552180D01*
X110771115Y-107822419D02*
X110771115Y-106822419D01*
X110771115Y-106822419D02*
X110437782Y-107536704D01*
X110437782Y-107536704D02*
X110104449Y-106822419D01*
X110104449Y-106822419D02*
X110104449Y-107822419D01*
X109723496Y-106822419D02*
X109104449Y-106822419D01*
X109104449Y-106822419D02*
X109437782Y-107203371D01*
X109437782Y-107203371D02*
X109294925Y-107203371D01*
X109294925Y-107203371D02*
X109199687Y-107250990D01*
X109199687Y-107250990D02*
X109152068Y-107298609D01*
X109152068Y-107298609D02*
X109104449Y-107393847D01*
X109104449Y-107393847D02*
X109104449Y-107631942D01*
X109104449Y-107631942D02*
X109152068Y-107727180D01*
X109152068Y-107727180D02*
X109199687Y-107774800D01*
X109199687Y-107774800D02*
X109294925Y-107822419D01*
X109294925Y-107822419D02*
X109580639Y-107822419D01*
X109580639Y-107822419D02*
X109675877Y-107774800D01*
X109675877Y-107774800D02*
X109723496Y-107727180D01*
X114721115Y-81297419D02*
X114721115Y-80297419D01*
X114721115Y-80297419D02*
X114387782Y-81011704D01*
X114387782Y-81011704D02*
X114054449Y-80297419D01*
X114054449Y-80297419D02*
X114054449Y-81297419D01*
X113673496Y-80297419D02*
X113054449Y-80297419D01*
X113054449Y-80297419D02*
X113387782Y-80678371D01*
X113387782Y-80678371D02*
X113244925Y-80678371D01*
X113244925Y-80678371D02*
X113149687Y-80725990D01*
X113149687Y-80725990D02*
X113102068Y-80773609D01*
X113102068Y-80773609D02*
X113054449Y-80868847D01*
X113054449Y-80868847D02*
X113054449Y-81106942D01*
X113054449Y-81106942D02*
X113102068Y-81202180D01*
X113102068Y-81202180D02*
X113149687Y-81249800D01*
X113149687Y-81249800D02*
X113244925Y-81297419D01*
X113244925Y-81297419D02*
X113530639Y-81297419D01*
X113530639Y-81297419D02*
X113625877Y-81249800D01*
X113625877Y-81249800D02*
X113673496Y-81202180D01*
X123250000Y-53325000D02*
X124950000Y-53325000D01*
X124950000Y-56225000D01*
X123250000Y-56225000D01*
X123250000Y-53325000D01*
X121000000Y-53350000D02*
X122675000Y-53350000D01*
X122675000Y-56225000D01*
X121000000Y-56225000D01*
X121000000Y-53350000D01*
X114250000Y-53375000D02*
X118575000Y-53375000D01*
X118575000Y-56275000D01*
X114250000Y-56275000D01*
X114250000Y-53375000D01*
X139550000Y-59125000D02*
X142550000Y-59125000D01*
X142550000Y-60775000D01*
X139550000Y-60775000D01*
X139550000Y-59125000D01*
X139600000Y-55375000D02*
X142550000Y-55375000D01*
X142550000Y-57000000D01*
X139600000Y-57000000D01*
X139600000Y-55375000D01*
X136950000Y-47425000D02*
X138700000Y-47425000D01*
X138700000Y-50525000D01*
X136950000Y-50525000D01*
X136950000Y-47425000D01*
X134025000Y-47425000D02*
X135775000Y-47425000D01*
X135775000Y-50500000D01*
X134025000Y-50500000D01*
X134025000Y-47425000D01*
X131150000Y-47450000D02*
X132925000Y-47450000D01*
X132925000Y-50500000D01*
X131150000Y-50500000D01*
X131150000Y-47450000D01*
X122800000Y-47475000D02*
X130075000Y-47475000D01*
X130075000Y-50450000D01*
X122800000Y-50450000D01*
X122800000Y-47475000D01*
X117775000Y-47500000D02*
X122225000Y-47500000D01*
X122225000Y-50700000D01*
X117775000Y-50700000D01*
X117775000Y-47500000D01*
X110500000Y-47500000D02*
X117400000Y-47500000D01*
X117400000Y-50600000D01*
X110500000Y-50600000D01*
X110500000Y-47500000D01*
X132197306Y-101245038D02*
X132292544Y-101197419D01*
X132292544Y-101197419D02*
X132435401Y-101197419D01*
X132435401Y-101197419D02*
X132578258Y-101245038D01*
X132578258Y-101245038D02*
X132673496Y-101340276D01*
X132673496Y-101340276D02*
X132721115Y-101435514D01*
X132721115Y-101435514D02*
X132768734Y-101625990D01*
X132768734Y-101625990D02*
X132768734Y-101768847D01*
X132768734Y-101768847D02*
X132721115Y-101959323D01*
X132721115Y-101959323D02*
X132673496Y-102054561D01*
X132673496Y-102054561D02*
X132578258Y-102149800D01*
X132578258Y-102149800D02*
X132435401Y-102197419D01*
X132435401Y-102197419D02*
X132340163Y-102197419D01*
X132340163Y-102197419D02*
X132197306Y-102149800D01*
X132197306Y-102149800D02*
X132149687Y-102102180D01*
X132149687Y-102102180D02*
X132149687Y-101768847D01*
X132149687Y-101768847D02*
X132340163Y-101768847D01*
X131721115Y-102197419D02*
X131721115Y-101197419D01*
X131721115Y-101197419D02*
X131149687Y-102197419D01*
X131149687Y-102197419D02*
X131149687Y-101197419D01*
X130673496Y-102197419D02*
X130673496Y-101197419D01*
X130673496Y-101197419D02*
X130435401Y-101197419D01*
X130435401Y-101197419D02*
X130292544Y-101245038D01*
X130292544Y-101245038D02*
X130197306Y-101340276D01*
X130197306Y-101340276D02*
X130149687Y-101435514D01*
X130149687Y-101435514D02*
X130102068Y-101625990D01*
X130102068Y-101625990D02*
X130102068Y-101768847D01*
X130102068Y-101768847D02*
X130149687Y-101959323D01*
X130149687Y-101959323D02*
X130197306Y-102054561D01*
X130197306Y-102054561D02*
X130292544Y-102149800D01*
X130292544Y-102149800D02*
X130435401Y-102197419D01*
X130435401Y-102197419D02*
X130673496Y-102197419D01*
X133125000Y-102800000D02*
X137000000Y-102800000D01*
X135730752Y-106032455D02*
X136397419Y-106032455D01*
X135349800Y-105794360D02*
X136064085Y-105556265D01*
X136064085Y-105556265D02*
X136064085Y-106175312D01*
X135397419Y-106461027D02*
X135397419Y-107127693D01*
X135397419Y-107127693D02*
X136397419Y-106699122D01*
X135397419Y-107699122D02*
X135397419Y-107794360D01*
X135397419Y-107794360D02*
X135445038Y-107889598D01*
X135445038Y-107889598D02*
X135492657Y-107937217D01*
X135492657Y-107937217D02*
X135587895Y-107984836D01*
X135587895Y-107984836D02*
X135778371Y-108032455D01*
X135778371Y-108032455D02*
X136016466Y-108032455D01*
X136016466Y-108032455D02*
X136206942Y-107984836D01*
X136206942Y-107984836D02*
X136302180Y-107937217D01*
X136302180Y-107937217D02*
X136349800Y-107889598D01*
X136349800Y-107889598D02*
X136397419Y-107794360D01*
X136397419Y-107794360D02*
X136397419Y-107699122D01*
X136397419Y-107699122D02*
X136349800Y-107603884D01*
X136349800Y-107603884D02*
X136302180Y-107556265D01*
X136302180Y-107556265D02*
X136206942Y-107508646D01*
X136206942Y-107508646D02*
X136016466Y-107461027D01*
X136016466Y-107461027D02*
X135778371Y-107461027D01*
X135778371Y-107461027D02*
X135587895Y-107508646D01*
X135587895Y-107508646D02*
X135492657Y-107556265D01*
X135492657Y-107556265D02*
X135445038Y-107603884D01*
X135445038Y-107603884D02*
X135397419Y-107699122D01*
X135730752Y-108889598D02*
X136397419Y-108889598D01*
X135730752Y-108461027D02*
X136254561Y-108461027D01*
X136254561Y-108461027D02*
X136349800Y-108508646D01*
X136349800Y-108508646D02*
X136397419Y-108603884D01*
X136397419Y-108603884D02*
X136397419Y-108746741D01*
X136397419Y-108746741D02*
X136349800Y-108841979D01*
X136349800Y-108841979D02*
X136302180Y-108889598D01*
X135873609Y-109699122D02*
X135873609Y-109365789D01*
X136397419Y-109365789D02*
X135397419Y-109365789D01*
X135397419Y-109365789D02*
X135397419Y-109841979D01*
X93046115Y-61048609D02*
X92712782Y-61048609D01*
X92569925Y-61572419D02*
X93046115Y-61572419D01*
X93046115Y-61572419D02*
X93046115Y-60572419D01*
X93046115Y-60572419D02*
X92569925Y-60572419D01*
X92188972Y-61524800D02*
X92046115Y-61572419D01*
X92046115Y-61572419D02*
X91808020Y-61572419D01*
X91808020Y-61572419D02*
X91712782Y-61524800D01*
X91712782Y-61524800D02*
X91665163Y-61477180D01*
X91665163Y-61477180D02*
X91617544Y-61381942D01*
X91617544Y-61381942D02*
X91617544Y-61286704D01*
X91617544Y-61286704D02*
X91665163Y-61191466D01*
X91665163Y-61191466D02*
X91712782Y-61143847D01*
X91712782Y-61143847D02*
X91808020Y-61096228D01*
X91808020Y-61096228D02*
X91998496Y-61048609D01*
X91998496Y-61048609D02*
X92093734Y-61000990D01*
X92093734Y-61000990D02*
X92141353Y-60953371D01*
X92141353Y-60953371D02*
X92188972Y-60858133D01*
X92188972Y-60858133D02*
X92188972Y-60762895D01*
X92188972Y-60762895D02*
X92141353Y-60667657D01*
X92141353Y-60667657D02*
X92093734Y-60620038D01*
X92093734Y-60620038D02*
X91998496Y-60572419D01*
X91998496Y-60572419D02*
X91760401Y-60572419D01*
X91760401Y-60572419D02*
X91617544Y-60620038D01*
X91188972Y-61572419D02*
X91188972Y-60572419D01*
X91188972Y-60572419D02*
X90808020Y-60572419D01*
X90808020Y-60572419D02*
X90712782Y-60620038D01*
X90712782Y-60620038D02*
X90665163Y-60667657D01*
X90665163Y-60667657D02*
X90617544Y-60762895D01*
X90617544Y-60762895D02*
X90617544Y-60905752D01*
X90617544Y-60905752D02*
X90665163Y-61000990D01*
X90665163Y-61000990D02*
X90712782Y-61048609D01*
X90712782Y-61048609D02*
X90808020Y-61096228D01*
X90808020Y-61096228D02*
X91188972Y-61096228D01*
X90284210Y-60572419D02*
X89665163Y-60572419D01*
X89665163Y-60572419D02*
X89998496Y-60953371D01*
X89998496Y-60953371D02*
X89855639Y-60953371D01*
X89855639Y-60953371D02*
X89760401Y-61000990D01*
X89760401Y-61000990D02*
X89712782Y-61048609D01*
X89712782Y-61048609D02*
X89665163Y-61143847D01*
X89665163Y-61143847D02*
X89665163Y-61381942D01*
X89665163Y-61381942D02*
X89712782Y-61477180D01*
X89712782Y-61477180D02*
X89760401Y-61524800D01*
X89760401Y-61524800D02*
X89855639Y-61572419D01*
X89855639Y-61572419D02*
X90141353Y-61572419D01*
X90141353Y-61572419D02*
X90236591Y-61524800D01*
X90236591Y-61524800D02*
X90284210Y-61477180D01*
X89284210Y-60667657D02*
X89236591Y-60620038D01*
X89236591Y-60620038D02*
X89141353Y-60572419D01*
X89141353Y-60572419D02*
X88903258Y-60572419D01*
X88903258Y-60572419D02*
X88808020Y-60620038D01*
X88808020Y-60620038D02*
X88760401Y-60667657D01*
X88760401Y-60667657D02*
X88712782Y-60762895D01*
X88712782Y-60762895D02*
X88712782Y-60858133D01*
X88712782Y-60858133D02*
X88760401Y-61000990D01*
X88760401Y-61000990D02*
X89331829Y-61572419D01*
X89331829Y-61572419D02*
X88712782Y-61572419D01*
X88284210Y-61191466D02*
X87522306Y-61191466D01*
X87141353Y-60572419D02*
X86903258Y-61572419D01*
X86903258Y-61572419D02*
X86712782Y-60858133D01*
X86712782Y-60858133D02*
X86522306Y-61572419D01*
X86522306Y-61572419D02*
X86284211Y-60572419D01*
X85331830Y-61572419D02*
X85665163Y-61096228D01*
X85903258Y-61572419D02*
X85903258Y-60572419D01*
X85903258Y-60572419D02*
X85522306Y-60572419D01*
X85522306Y-60572419D02*
X85427068Y-60620038D01*
X85427068Y-60620038D02*
X85379449Y-60667657D01*
X85379449Y-60667657D02*
X85331830Y-60762895D01*
X85331830Y-60762895D02*
X85331830Y-60905752D01*
X85331830Y-60905752D02*
X85379449Y-61000990D01*
X85379449Y-61000990D02*
X85427068Y-61048609D01*
X85427068Y-61048609D02*
X85522306Y-61096228D01*
X85522306Y-61096228D02*
X85903258Y-61096228D01*
X84712782Y-60572419D02*
X84522306Y-60572419D01*
X84522306Y-60572419D02*
X84427068Y-60620038D01*
X84427068Y-60620038D02*
X84331830Y-60715276D01*
X84331830Y-60715276D02*
X84284211Y-60905752D01*
X84284211Y-60905752D02*
X84284211Y-61239085D01*
X84284211Y-61239085D02*
X84331830Y-61429561D01*
X84331830Y-61429561D02*
X84427068Y-61524800D01*
X84427068Y-61524800D02*
X84522306Y-61572419D01*
X84522306Y-61572419D02*
X84712782Y-61572419D01*
X84712782Y-61572419D02*
X84808020Y-61524800D01*
X84808020Y-61524800D02*
X84903258Y-61429561D01*
X84903258Y-61429561D02*
X84950877Y-61239085D01*
X84950877Y-61239085D02*
X84950877Y-60905752D01*
X84950877Y-60905752D02*
X84903258Y-60715276D01*
X84903258Y-60715276D02*
X84808020Y-60620038D01*
X84808020Y-60620038D02*
X84712782Y-60572419D01*
X83665163Y-60572419D02*
X83474687Y-60572419D01*
X83474687Y-60572419D02*
X83379449Y-60620038D01*
X83379449Y-60620038D02*
X83284211Y-60715276D01*
X83284211Y-60715276D02*
X83236592Y-60905752D01*
X83236592Y-60905752D02*
X83236592Y-61239085D01*
X83236592Y-61239085D02*
X83284211Y-61429561D01*
X83284211Y-61429561D02*
X83379449Y-61524800D01*
X83379449Y-61524800D02*
X83474687Y-61572419D01*
X83474687Y-61572419D02*
X83665163Y-61572419D01*
X83665163Y-61572419D02*
X83760401Y-61524800D01*
X83760401Y-61524800D02*
X83855639Y-61429561D01*
X83855639Y-61429561D02*
X83903258Y-61239085D01*
X83903258Y-61239085D02*
X83903258Y-60905752D01*
X83903258Y-60905752D02*
X83855639Y-60715276D01*
X83855639Y-60715276D02*
X83760401Y-60620038D01*
X83760401Y-60620038D02*
X83665163Y-60572419D01*
X82808020Y-61572419D02*
X82808020Y-60572419D01*
X82808020Y-60572419D02*
X82474687Y-61286704D01*
X82474687Y-61286704D02*
X82141354Y-60572419D01*
X82141354Y-60572419D02*
X82141354Y-61572419D01*
X81665163Y-61191466D02*
X80903259Y-61191466D01*
X80522306Y-60572419D02*
X79903259Y-60572419D01*
X79903259Y-60572419D02*
X80236592Y-60953371D01*
X80236592Y-60953371D02*
X80093735Y-60953371D01*
X80093735Y-60953371D02*
X79998497Y-61000990D01*
X79998497Y-61000990D02*
X79950878Y-61048609D01*
X79950878Y-61048609D02*
X79903259Y-61143847D01*
X79903259Y-61143847D02*
X79903259Y-61381942D01*
X79903259Y-61381942D02*
X79950878Y-61477180D01*
X79950878Y-61477180D02*
X79998497Y-61524800D01*
X79998497Y-61524800D02*
X80093735Y-61572419D01*
X80093735Y-61572419D02*
X80379449Y-61572419D01*
X80379449Y-61572419D02*
X80474687Y-61524800D01*
X80474687Y-61524800D02*
X80522306Y-61477180D01*
X79522306Y-60667657D02*
X79474687Y-60620038D01*
X79474687Y-60620038D02*
X79379449Y-60572419D01*
X79379449Y-60572419D02*
X79141354Y-60572419D01*
X79141354Y-60572419D02*
X79046116Y-60620038D01*
X79046116Y-60620038D02*
X78998497Y-60667657D01*
X78998497Y-60667657D02*
X78950878Y-60762895D01*
X78950878Y-60762895D02*
X78950878Y-60858133D01*
X78950878Y-60858133D02*
X78998497Y-61000990D01*
X78998497Y-61000990D02*
X79569925Y-61572419D01*
X79569925Y-61572419D02*
X78950878Y-61572419D01*
X78522306Y-61572419D02*
X78522306Y-60572419D01*
X78522306Y-60572419D02*
X78284211Y-60572419D01*
X78284211Y-60572419D02*
X78141354Y-60620038D01*
X78141354Y-60620038D02*
X78046116Y-60715276D01*
X78046116Y-60715276D02*
X77998497Y-60810514D01*
X77998497Y-60810514D02*
X77950878Y-61000990D01*
X77950878Y-61000990D02*
X77950878Y-61143847D01*
X77950878Y-61143847D02*
X77998497Y-61334323D01*
X77998497Y-61334323D02*
X78046116Y-61429561D01*
X78046116Y-61429561D02*
X78141354Y-61524800D01*
X78141354Y-61524800D02*
X78284211Y-61572419D01*
X78284211Y-61572419D02*
X78522306Y-61572419D01*
X76808021Y-60524800D02*
X77665163Y-61810514D01*
X76474687Y-60572419D02*
X76474687Y-61381942D01*
X76474687Y-61381942D02*
X76427068Y-61477180D01*
X76427068Y-61477180D02*
X76379449Y-61524800D01*
X76379449Y-61524800D02*
X76284211Y-61572419D01*
X76284211Y-61572419D02*
X76093735Y-61572419D01*
X76093735Y-61572419D02*
X75998497Y-61524800D01*
X75998497Y-61524800D02*
X75950878Y-61477180D01*
X75950878Y-61477180D02*
X75903259Y-61381942D01*
X75903259Y-61381942D02*
X75903259Y-60572419D01*
X109225000Y-50650000D02*
X60450000Y-50650000D01*
X60525000Y-72450000D02*
X109400000Y-72450000D01*
X60525000Y-47975000D02*
X109325000Y-47975000D01*
X109325000Y-75025000D01*
X60525000Y-75025000D01*
X60525000Y-47975000D01*
X118300000Y-58325000D02*
X118300000Y-56375000D01*
X110700000Y-50400000D02*
X110700000Y-51575000D01*
X114500000Y-56375000D02*
X114500000Y-58325000D01*
X110700000Y-51575000D02*
X117150000Y-51575000D01*
X118000000Y-51550000D02*
X121975000Y-51550000D01*
X121975000Y-51550000D02*
X121975000Y-50450000D01*
X118000000Y-50425000D02*
X118000000Y-51550000D01*
X114500000Y-58325000D02*
X118300000Y-58325000D01*
X123025000Y-51475000D02*
X129825000Y-51475000D01*
X117150000Y-51575000D02*
X117150000Y-50400000D01*
X129825000Y-51475000D02*
X129825000Y-49925000D01*
X123025000Y-49875000D02*
X123025000Y-51475000D01*
X140572419Y-52061027D02*
X140572419Y-52632455D01*
X141572419Y-52346741D02*
X140572419Y-52346741D01*
X141667657Y-52727694D02*
X141667657Y-53489598D01*
X141477180Y-54299122D02*
X141524800Y-54251503D01*
X141524800Y-54251503D02*
X141572419Y-54108646D01*
X141572419Y-54108646D02*
X141572419Y-54013408D01*
X141572419Y-54013408D02*
X141524800Y-53870551D01*
X141524800Y-53870551D02*
X141429561Y-53775313D01*
X141429561Y-53775313D02*
X141334323Y-53727694D01*
X141334323Y-53727694D02*
X141143847Y-53680075D01*
X141143847Y-53680075D02*
X141000990Y-53680075D01*
X141000990Y-53680075D02*
X140810514Y-53727694D01*
X140810514Y-53727694D02*
X140715276Y-53775313D01*
X140715276Y-53775313D02*
X140620038Y-53870551D01*
X140620038Y-53870551D02*
X140572419Y-54013408D01*
X140572419Y-54013408D02*
X140572419Y-54108646D01*
X140572419Y-54108646D02*
X140620038Y-54251503D01*
X140620038Y-54251503D02*
X140667657Y-54299122D01*
X141524800Y-54680075D02*
X141572419Y-54822932D01*
X141572419Y-54822932D02*
X141572419Y-55061027D01*
X141572419Y-55061027D02*
X141524800Y-55156265D01*
X141524800Y-55156265D02*
X141477180Y-55203884D01*
X141477180Y-55203884D02*
X141381942Y-55251503D01*
X141381942Y-55251503D02*
X141286704Y-55251503D01*
X141286704Y-55251503D02*
X141191466Y-55203884D01*
X141191466Y-55203884D02*
X141143847Y-55156265D01*
X141143847Y-55156265D02*
X141096228Y-55061027D01*
X141096228Y-55061027D02*
X141048609Y-54870551D01*
X141048609Y-54870551D02*
X141000990Y-54775313D01*
X141000990Y-54775313D02*
X140953371Y-54727694D01*
X140953371Y-54727694D02*
X140858133Y-54680075D01*
X140858133Y-54680075D02*
X140762895Y-54680075D01*
X140762895Y-54680075D02*
X140667657Y-54727694D01*
X140667657Y-54727694D02*
X140620038Y-54775313D01*
X140620038Y-54775313D02*
X140572419Y-54870551D01*
X140572419Y-54870551D02*
X140572419Y-55108646D01*
X140572419Y-55108646D02*
X140620038Y-55251503D01*
X117047306Y-58770038D02*
X117142544Y-58722419D01*
X117142544Y-58722419D02*
X117285401Y-58722419D01*
X117285401Y-58722419D02*
X117428258Y-58770038D01*
X117428258Y-58770038D02*
X117523496Y-58865276D01*
X117523496Y-58865276D02*
X117571115Y-58960514D01*
X117571115Y-58960514D02*
X117618734Y-59150990D01*
X117618734Y-59150990D02*
X117618734Y-59293847D01*
X117618734Y-59293847D02*
X117571115Y-59484323D01*
X117571115Y-59484323D02*
X117523496Y-59579561D01*
X117523496Y-59579561D02*
X117428258Y-59674800D01*
X117428258Y-59674800D02*
X117285401Y-59722419D01*
X117285401Y-59722419D02*
X117190163Y-59722419D01*
X117190163Y-59722419D02*
X117047306Y-59674800D01*
X117047306Y-59674800D02*
X116999687Y-59627180D01*
X116999687Y-59627180D02*
X116999687Y-59293847D01*
X116999687Y-59293847D02*
X117190163Y-59293847D01*
X116571115Y-59722419D02*
X116571115Y-58722419D01*
X116571115Y-58722419D02*
X115999687Y-59722419D01*
X115999687Y-59722419D02*
X115999687Y-58722419D01*
X115523496Y-59722419D02*
X115523496Y-58722419D01*
X115523496Y-58722419D02*
X115285401Y-58722419D01*
X115285401Y-58722419D02*
X115142544Y-58770038D01*
X115142544Y-58770038D02*
X115047306Y-58865276D01*
X115047306Y-58865276D02*
X114999687Y-58960514D01*
X114999687Y-58960514D02*
X114952068Y-59150990D01*
X114952068Y-59150990D02*
X114952068Y-59293847D01*
X114952068Y-59293847D02*
X114999687Y-59484323D01*
X114999687Y-59484323D02*
X115047306Y-59579561D01*
X115047306Y-59579561D02*
X115142544Y-59674800D01*
X115142544Y-59674800D02*
X115285401Y-59722419D01*
X115285401Y-59722419D02*
X115523496Y-59722419D01*
G36*
X115446135Y-52755000D02*
G01*
X115446135Y-51750673D01*
X115246711Y-51750673D01*
X115009673Y-52459771D01*
X114961863Y-52607965D01*
X114908557Y-52447437D01*
X114668771Y-51750673D01*
X114490474Y-51750673D01*
X114490474Y-52755000D01*
X114618213Y-52755000D01*
X114618213Y-51914804D01*
X114909228Y-52755000D01*
X115028785Y-52755000D01*
X115318396Y-51903080D01*
X115318396Y-52755000D01*
X115446135Y-52755000D01*
G37*
G36*
X113921312Y-51741034D02*
G01*
X113996656Y-51758356D01*
X114064703Y-51786473D01*
X114126552Y-51825468D01*
X114182972Y-51876031D01*
X114229455Y-51934169D01*
X114266300Y-52000828D01*
X114293573Y-52077258D01*
X114310765Y-52165065D01*
X114316817Y-52266147D01*
X114310416Y-52352681D01*
X114291366Y-52435661D01*
X114259481Y-52516008D01*
X114227202Y-52572254D01*
X114188547Y-52621707D01*
X114143249Y-52664960D01*
X114090771Y-52702365D01*
X114033804Y-52731973D01*
X113973129Y-52753227D01*
X113908105Y-52766198D01*
X113837979Y-52770631D01*
X113752572Y-52763699D01*
X113671901Y-52743160D01*
X113594836Y-52708838D01*
X113541857Y-52674433D01*
X113495452Y-52633015D01*
X113455114Y-52584110D01*
X113420629Y-52526938D01*
X113386957Y-52444813D01*
X113366275Y-52354529D01*
X113359141Y-52254546D01*
X113359212Y-52253508D01*
X113495734Y-52253508D01*
X113502615Y-52349477D01*
X113521822Y-52428918D01*
X113551899Y-52494737D01*
X113592393Y-52549225D01*
X113644071Y-52594828D01*
X113701465Y-52627003D01*
X113765755Y-52646612D01*
X113838651Y-52653394D01*
X113910166Y-52646721D01*
X113973723Y-52627361D01*
X114030928Y-52595491D01*
X114082894Y-52550202D01*
X114124145Y-52496060D01*
X114154386Y-52432276D01*
X114173459Y-52356976D01*
X114180225Y-52267735D01*
X114175181Y-52174224D01*
X114161298Y-52098159D01*
X114140077Y-52036665D01*
X114112468Y-51987274D01*
X114078803Y-51948021D01*
X114025203Y-51905870D01*
X113967649Y-51876265D01*
X113905216Y-51858388D01*
X113836636Y-51852278D01*
X113772009Y-51857939D01*
X113712831Y-51874532D01*
X113657972Y-51902042D01*
X113609465Y-51939425D01*
X113569334Y-51985741D01*
X113537072Y-52042116D01*
X113514690Y-52103632D01*
X113500654Y-52173622D01*
X113495734Y-52253508D01*
X113359212Y-52253508D01*
X113365939Y-52155781D01*
X113385617Y-52066743D01*
X113417576Y-51985940D01*
X113450385Y-51929523D01*
X113489402Y-51880330D01*
X113534875Y-51837715D01*
X113587325Y-51801292D01*
X113644208Y-51772511D01*
X113704424Y-51751884D01*
X113768562Y-51739324D01*
X113837308Y-51735041D01*
X113921312Y-51741034D01*
G37*
G36*
X113233295Y-52430645D02*
G01*
X113108243Y-52418921D01*
X113099178Y-52468911D01*
X113085239Y-52510196D01*
X113066966Y-52544157D01*
X113042441Y-52573603D01*
X113009368Y-52599967D01*
X112966154Y-52623230D01*
X112919717Y-52639713D01*
X112868735Y-52649883D01*
X112812465Y-52653394D01*
X112739434Y-52647384D01*
X112678620Y-52630497D01*
X112641784Y-52612492D01*
X112613440Y-52591546D01*
X112592219Y-52567726D01*
X112570815Y-52525982D01*
X112563825Y-52481814D01*
X112570755Y-52437793D01*
X112591181Y-52400237D01*
X112624908Y-52369729D01*
X112681306Y-52341435D01*
X112733895Y-52324707D01*
X112859603Y-52292526D01*
X112986632Y-52257051D01*
X113052922Y-52229877D01*
X113098159Y-52201694D01*
X113133333Y-52170577D01*
X113159839Y-52136454D01*
X113179303Y-52097963D01*
X113191019Y-52056582D01*
X113195010Y-52011524D01*
X113190256Y-51962138D01*
X113176051Y-51915089D01*
X113151962Y-51869558D01*
X113119529Y-51829709D01*
X113078103Y-51796363D01*
X113026299Y-51769296D01*
X112970236Y-51750551D01*
X112909229Y-51739013D01*
X112842506Y-51735041D01*
X112768980Y-51739318D01*
X112703905Y-51751559D01*
X112646135Y-51771128D01*
X112592860Y-51799553D01*
X112549685Y-51834823D01*
X112515343Y-51877252D01*
X112489665Y-51925694D01*
X112473258Y-51978275D01*
X112466128Y-52035949D01*
X112593196Y-52043764D01*
X112606252Y-51983459D01*
X112629520Y-51936708D01*
X112662561Y-51900699D01*
X112704691Y-51875288D01*
X112761418Y-51858522D01*
X112837072Y-51852278D01*
X112916435Y-51858207D01*
X112972954Y-51873710D01*
X113012316Y-51896425D01*
X113043558Y-51928819D01*
X113061336Y-51963821D01*
X113067271Y-52002793D01*
X113062835Y-52037081D01*
X113049972Y-52066298D01*
X113028314Y-52091697D01*
X112998985Y-52110532D01*
X112938081Y-52134212D01*
X112828524Y-52163260D01*
X112680155Y-52201086D01*
X112606873Y-52227130D01*
X112551439Y-52257821D01*
X112509101Y-52291824D01*
X112477791Y-52329101D01*
X112454802Y-52371865D01*
X112440871Y-52418888D01*
X112436086Y-52471250D01*
X112441117Y-52523137D01*
X112456201Y-52572983D01*
X112481882Y-52621643D01*
X112516186Y-52664571D01*
X112559581Y-52701082D01*
X112613346Y-52731430D01*
X112671679Y-52752865D01*
X112735696Y-52766073D01*
X112806359Y-52770631D01*
X112896476Y-52765719D01*
X112971644Y-52752048D01*
X113034176Y-52730881D01*
X113091614Y-52699532D01*
X113139303Y-52659836D01*
X113178340Y-52611263D01*
X113207500Y-52556060D01*
X113225816Y-52496228D01*
X113233295Y-52430645D01*
G37*
G36*
X112232632Y-52755000D02*
G01*
X112232632Y-51750673D01*
X112100130Y-51750673D01*
X112100130Y-52755000D01*
X112232632Y-52755000D01*
G37*
X121202531Y-57355074D02*
X121202531Y-56878884D01*
X121202531Y-56878884D02*
X121678721Y-56831265D01*
X121678721Y-56831265D02*
X121631102Y-56878884D01*
X121631102Y-56878884D02*
X121583483Y-56974122D01*
X121583483Y-56974122D02*
X121583483Y-57212217D01*
X121583483Y-57212217D02*
X121631102Y-57307455D01*
X121631102Y-57307455D02*
X121678721Y-57355074D01*
X121678721Y-57355074D02*
X121773959Y-57402693D01*
X121773959Y-57402693D02*
X122012054Y-57402693D01*
X122012054Y-57402693D02*
X122107292Y-57355074D01*
X122107292Y-57355074D02*
X122154912Y-57307455D01*
X122154912Y-57307455D02*
X122202531Y-57212217D01*
X122202531Y-57212217D02*
X122202531Y-56974122D01*
X122202531Y-56974122D02*
X122154912Y-56878884D01*
X122154912Y-56878884D02*
X122107292Y-56831265D01*
X121202531Y-57688408D02*
X122202531Y-58021741D01*
X122202531Y-58021741D02*
X121202531Y-58355074D01*
X122202531Y-58688408D02*
X121202531Y-58688408D01*
X122202531Y-59164598D02*
X121202531Y-59164598D01*
X121202531Y-59164598D02*
X122202531Y-59736026D01*
X122202531Y-59736026D02*
X121202531Y-59736026D01*
X124222419Y-63552693D02*
X124222419Y-62981265D01*
X124222419Y-63266979D02*
X123222419Y-63266979D01*
X123222419Y-63266979D02*
X123365276Y-63171741D01*
X123365276Y-63171741D02*
X123460514Y-63076503D01*
X123460514Y-63076503D02*
X123508133Y-62981265D01*
X123222419Y-64171741D02*
X123222419Y-64266979D01*
X123222419Y-64266979D02*
X123270038Y-64362217D01*
X123270038Y-64362217D02*
X123317657Y-64409836D01*
X123317657Y-64409836D02*
X123412895Y-64457455D01*
X123412895Y-64457455D02*
X123603371Y-64505074D01*
X123603371Y-64505074D02*
X123841466Y-64505074D01*
X123841466Y-64505074D02*
X124031942Y-64457455D01*
X124031942Y-64457455D02*
X124127180Y-64409836D01*
X124127180Y-64409836D02*
X124174800Y-64362217D01*
X124174800Y-64362217D02*
X124222419Y-64266979D01*
X124222419Y-64266979D02*
X124222419Y-64171741D01*
X124222419Y-64171741D02*
X124174800Y-64076503D01*
X124174800Y-64076503D02*
X124127180Y-64028884D01*
X124127180Y-64028884D02*
X124031942Y-63981265D01*
X124031942Y-63981265D02*
X123841466Y-63933646D01*
X123841466Y-63933646D02*
X123603371Y-63933646D01*
X123603371Y-63933646D02*
X123412895Y-63981265D01*
X123412895Y-63981265D02*
X123317657Y-64028884D01*
X123317657Y-64028884D02*
X123270038Y-64076503D01*
X123270038Y-64076503D02*
X123222419Y-64171741D01*
X123222419Y-65124122D02*
X123222419Y-65219360D01*
X123222419Y-65219360D02*
X123270038Y-65314598D01*
X123270038Y-65314598D02*
X123317657Y-65362217D01*
X123317657Y-65362217D02*
X123412895Y-65409836D01*
X123412895Y-65409836D02*
X123603371Y-65457455D01*
X123603371Y-65457455D02*
X123841466Y-65457455D01*
X123841466Y-65457455D02*
X124031942Y-65409836D01*
X124031942Y-65409836D02*
X124127180Y-65362217D01*
X124127180Y-65362217D02*
X124174800Y-65314598D01*
X124174800Y-65314598D02*
X124222419Y-65219360D01*
X124222419Y-65219360D02*
X124222419Y-65124122D01*
X124222419Y-65124122D02*
X124174800Y-65028884D01*
X124174800Y-65028884D02*
X124127180Y-64981265D01*
X124127180Y-64981265D02*
X124031942Y-64933646D01*
X124031942Y-64933646D02*
X123841466Y-64886027D01*
X123841466Y-64886027D02*
X123603371Y-64886027D01*
X123603371Y-64886027D02*
X123412895Y-64933646D01*
X123412895Y-64933646D02*
X123317657Y-64981265D01*
X123317657Y-64981265D02*
X123270038Y-65028884D01*
X123270038Y-65028884D02*
X123222419Y-65124122D01*
X123555752Y-65886027D02*
X124222419Y-65886027D01*
X123650990Y-65886027D02*
X123603371Y-65933646D01*
X123603371Y-65933646D02*
X123555752Y-66028884D01*
X123555752Y-66028884D02*
X123555752Y-66171741D01*
X123555752Y-66171741D02*
X123603371Y-66266979D01*
X123603371Y-66266979D02*
X123698609Y-66314598D01*
X123698609Y-66314598D02*
X124222419Y-66314598D01*
X123698609Y-67124122D02*
X123698609Y-66790789D01*
X124222419Y-66790789D02*
X123222419Y-66790789D01*
X123222419Y-66790789D02*
X123222419Y-67266979D01*
X129443734Y-52774800D02*
X129300877Y-52822419D01*
X129300877Y-52822419D02*
X129062782Y-52822419D01*
X129062782Y-52822419D02*
X128967544Y-52774800D01*
X128967544Y-52774800D02*
X128919925Y-52727180D01*
X128919925Y-52727180D02*
X128872306Y-52631942D01*
X128872306Y-52631942D02*
X128872306Y-52536704D01*
X128872306Y-52536704D02*
X128919925Y-52441466D01*
X128919925Y-52441466D02*
X128967544Y-52393847D01*
X128967544Y-52393847D02*
X129062782Y-52346228D01*
X129062782Y-52346228D02*
X129253258Y-52298609D01*
X129253258Y-52298609D02*
X129348496Y-52250990D01*
X129348496Y-52250990D02*
X129396115Y-52203371D01*
X129396115Y-52203371D02*
X129443734Y-52108133D01*
X129443734Y-52108133D02*
X129443734Y-52012895D01*
X129443734Y-52012895D02*
X129396115Y-51917657D01*
X129396115Y-51917657D02*
X129348496Y-51870038D01*
X129348496Y-51870038D02*
X129253258Y-51822419D01*
X129253258Y-51822419D02*
X129015163Y-51822419D01*
X129015163Y-51822419D02*
X128872306Y-51870038D01*
X127872306Y-52727180D02*
X127919925Y-52774800D01*
X127919925Y-52774800D02*
X128062782Y-52822419D01*
X128062782Y-52822419D02*
X128158020Y-52822419D01*
X128158020Y-52822419D02*
X128300877Y-52774800D01*
X128300877Y-52774800D02*
X128396115Y-52679561D01*
X128396115Y-52679561D02*
X128443734Y-52584323D01*
X128443734Y-52584323D02*
X128491353Y-52393847D01*
X128491353Y-52393847D02*
X128491353Y-52250990D01*
X128491353Y-52250990D02*
X128443734Y-52060514D01*
X128443734Y-52060514D02*
X128396115Y-51965276D01*
X128396115Y-51965276D02*
X128300877Y-51870038D01*
X128300877Y-51870038D02*
X128158020Y-51822419D01*
X128158020Y-51822419D02*
X128062782Y-51822419D01*
X128062782Y-51822419D02*
X127919925Y-51870038D01*
X127919925Y-51870038D02*
X127872306Y-51917657D01*
X127443734Y-52822419D02*
X127443734Y-51822419D01*
X126872306Y-52822419D02*
X127300877Y-52250990D01*
X126872306Y-51822419D02*
X127443734Y-52393847D01*
X125729449Y-51774800D02*
X126586591Y-53060514D01*
X124824687Y-52727180D02*
X124872306Y-52774800D01*
X124872306Y-52774800D02*
X125015163Y-52822419D01*
X125015163Y-52822419D02*
X125110401Y-52822419D01*
X125110401Y-52822419D02*
X125253258Y-52774800D01*
X125253258Y-52774800D02*
X125348496Y-52679561D01*
X125348496Y-52679561D02*
X125396115Y-52584323D01*
X125396115Y-52584323D02*
X125443734Y-52393847D01*
X125443734Y-52393847D02*
X125443734Y-52250990D01*
X125443734Y-52250990D02*
X125396115Y-52060514D01*
X125396115Y-52060514D02*
X125348496Y-51965276D01*
X125348496Y-51965276D02*
X125253258Y-51870038D01*
X125253258Y-51870038D02*
X125110401Y-51822419D01*
X125110401Y-51822419D02*
X125015163Y-51822419D01*
X125015163Y-51822419D02*
X124872306Y-51870038D01*
X124872306Y-51870038D02*
X124824687Y-51917657D01*
X123919925Y-52822419D02*
X124396115Y-52822419D01*
X124396115Y-52822419D02*
X124396115Y-51822419D01*
X123586591Y-52822419D02*
X123586591Y-51822419D01*
X123015163Y-52822419D02*
X123443734Y-52250990D01*
X123015163Y-51822419D02*
X123586591Y-52393847D01*
X137272419Y-67858646D02*
X137272419Y-68477693D01*
X137272419Y-68477693D02*
X137653371Y-68144360D01*
X137653371Y-68144360D02*
X137653371Y-68287217D01*
X137653371Y-68287217D02*
X137700990Y-68382455D01*
X137700990Y-68382455D02*
X137748609Y-68430074D01*
X137748609Y-68430074D02*
X137843847Y-68477693D01*
X137843847Y-68477693D02*
X138081942Y-68477693D01*
X138081942Y-68477693D02*
X138177180Y-68430074D01*
X138177180Y-68430074D02*
X138224800Y-68382455D01*
X138224800Y-68382455D02*
X138272419Y-68287217D01*
X138272419Y-68287217D02*
X138272419Y-68001503D01*
X138272419Y-68001503D02*
X138224800Y-67906265D01*
X138224800Y-67906265D02*
X138177180Y-67858646D01*
X137272419Y-68763408D02*
X138272419Y-69096741D01*
X138272419Y-69096741D02*
X137272419Y-69430074D01*
X137272419Y-69668170D02*
X137272419Y-70287217D01*
X137272419Y-70287217D02*
X137653371Y-69953884D01*
X137653371Y-69953884D02*
X137653371Y-70096741D01*
X137653371Y-70096741D02*
X137700990Y-70191979D01*
X137700990Y-70191979D02*
X137748609Y-70239598D01*
X137748609Y-70239598D02*
X137843847Y-70287217D01*
X137843847Y-70287217D02*
X138081942Y-70287217D01*
X138081942Y-70287217D02*
X138177180Y-70239598D01*
X138177180Y-70239598D02*
X138224800Y-70191979D01*
X138224800Y-70191979D02*
X138272419Y-70096741D01*
X138272419Y-70096741D02*
X138272419Y-69811027D01*
X138272419Y-69811027D02*
X138224800Y-69715789D01*
X138224800Y-69715789D02*
X138177180Y-69668170D01*
X137224800Y-71430074D02*
X138510514Y-70572932D01*
X137272419Y-72239598D02*
X137272419Y-71763408D01*
X137272419Y-71763408D02*
X137748609Y-71715789D01*
X137748609Y-71715789D02*
X137700990Y-71763408D01*
X137700990Y-71763408D02*
X137653371Y-71858646D01*
X137653371Y-71858646D02*
X137653371Y-72096741D01*
X137653371Y-72096741D02*
X137700990Y-72191979D01*
X137700990Y-72191979D02*
X137748609Y-72239598D01*
X137748609Y-72239598D02*
X137843847Y-72287217D01*
X137843847Y-72287217D02*
X138081942Y-72287217D01*
X138081942Y-72287217D02*
X138177180Y-72239598D01*
X138177180Y-72239598D02*
X138224800Y-72191979D01*
X138224800Y-72191979D02*
X138272419Y-72096741D01*
X138272419Y-72096741D02*
X138272419Y-71858646D01*
X138272419Y-71858646D02*
X138224800Y-71763408D01*
X138224800Y-71763408D02*
X138177180Y-71715789D01*
X137272419Y-72572932D02*
X138272419Y-72906265D01*
X138272419Y-72906265D02*
X137272419Y-73239598D01*
X124599800Y-56731265D02*
X124647419Y-56874122D01*
X124647419Y-56874122D02*
X124647419Y-57112217D01*
X124647419Y-57112217D02*
X124599800Y-57207455D01*
X124599800Y-57207455D02*
X124552180Y-57255074D01*
X124552180Y-57255074D02*
X124456942Y-57302693D01*
X124456942Y-57302693D02*
X124361704Y-57302693D01*
X124361704Y-57302693D02*
X124266466Y-57255074D01*
X124266466Y-57255074D02*
X124218847Y-57207455D01*
X124218847Y-57207455D02*
X124171228Y-57112217D01*
X124171228Y-57112217D02*
X124123609Y-56921741D01*
X124123609Y-56921741D02*
X124075990Y-56826503D01*
X124075990Y-56826503D02*
X124028371Y-56778884D01*
X124028371Y-56778884D02*
X123933133Y-56731265D01*
X123933133Y-56731265D02*
X123837895Y-56731265D01*
X123837895Y-56731265D02*
X123742657Y-56778884D01*
X123742657Y-56778884D02*
X123695038Y-56826503D01*
X123695038Y-56826503D02*
X123647419Y-56921741D01*
X123647419Y-56921741D02*
X123647419Y-57159836D01*
X123647419Y-57159836D02*
X123695038Y-57302693D01*
X124647419Y-57731265D02*
X123647419Y-57731265D01*
X123647419Y-57731265D02*
X123647419Y-57969360D01*
X123647419Y-57969360D02*
X123695038Y-58112217D01*
X123695038Y-58112217D02*
X123790276Y-58207455D01*
X123790276Y-58207455D02*
X123885514Y-58255074D01*
X123885514Y-58255074D02*
X124075990Y-58302693D01*
X124075990Y-58302693D02*
X124218847Y-58302693D01*
X124218847Y-58302693D02*
X124409323Y-58255074D01*
X124409323Y-58255074D02*
X124504561Y-58207455D01*
X124504561Y-58207455D02*
X124599800Y-58112217D01*
X124599800Y-58112217D02*
X124647419Y-57969360D01*
X124647419Y-57969360D02*
X124647419Y-57731265D01*
X124742657Y-58493170D02*
X124742657Y-59255074D01*
X124552180Y-60064598D02*
X124599800Y-60016979D01*
X124599800Y-60016979D02*
X124647419Y-59874122D01*
X124647419Y-59874122D02*
X124647419Y-59778884D01*
X124647419Y-59778884D02*
X124599800Y-59636027D01*
X124599800Y-59636027D02*
X124504561Y-59540789D01*
X124504561Y-59540789D02*
X124409323Y-59493170D01*
X124409323Y-59493170D02*
X124218847Y-59445551D01*
X124218847Y-59445551D02*
X124075990Y-59445551D01*
X124075990Y-59445551D02*
X123885514Y-59493170D01*
X123885514Y-59493170D02*
X123790276Y-59540789D01*
X123790276Y-59540789D02*
X123695038Y-59636027D01*
X123695038Y-59636027D02*
X123647419Y-59778884D01*
X123647419Y-59778884D02*
X123647419Y-59874122D01*
X123647419Y-59874122D02*
X123695038Y-60016979D01*
X123695038Y-60016979D02*
X123742657Y-60064598D01*
X124599800Y-60445551D02*
X124647419Y-60588408D01*
X124647419Y-60588408D02*
X124647419Y-60826503D01*
X124647419Y-60826503D02*
X124599800Y-60921741D01*
X124599800Y-60921741D02*
X124552180Y-60969360D01*
X124552180Y-60969360D02*
X124456942Y-61016979D01*
X124456942Y-61016979D02*
X124361704Y-61016979D01*
X124361704Y-61016979D02*
X124266466Y-60969360D01*
X124266466Y-60969360D02*
X124218847Y-60921741D01*
X124218847Y-60921741D02*
X124171228Y-60826503D01*
X124171228Y-60826503D02*
X124123609Y-60636027D01*
X124123609Y-60636027D02*
X124075990Y-60540789D01*
X124075990Y-60540789D02*
X124028371Y-60493170D01*
X124028371Y-60493170D02*
X123933133Y-60445551D01*
X123933133Y-60445551D02*
X123837895Y-60445551D01*
X123837895Y-60445551D02*
X123742657Y-60493170D01*
X123742657Y-60493170D02*
X123695038Y-60540789D01*
X123695038Y-60540789D02*
X123647419Y-60636027D01*
X123647419Y-60636027D02*
X123647419Y-60874122D01*
X123647419Y-60874122D02*
X123695038Y-61016979D01*
X139897419Y-67955074D02*
X139897419Y-67478884D01*
X139897419Y-67478884D02*
X138897419Y-67478884D01*
X139802180Y-68859836D02*
X139849800Y-68812217D01*
X139849800Y-68812217D02*
X139897419Y-68669360D01*
X139897419Y-68669360D02*
X139897419Y-68574122D01*
X139897419Y-68574122D02*
X139849800Y-68431265D01*
X139849800Y-68431265D02*
X139754561Y-68336027D01*
X139754561Y-68336027D02*
X139659323Y-68288408D01*
X139659323Y-68288408D02*
X139468847Y-68240789D01*
X139468847Y-68240789D02*
X139325990Y-68240789D01*
X139325990Y-68240789D02*
X139135514Y-68288408D01*
X139135514Y-68288408D02*
X139040276Y-68336027D01*
X139040276Y-68336027D02*
X138945038Y-68431265D01*
X138945038Y-68431265D02*
X138897419Y-68574122D01*
X138897419Y-68574122D02*
X138897419Y-68669360D01*
X138897419Y-68669360D02*
X138945038Y-68812217D01*
X138945038Y-68812217D02*
X138992657Y-68859836D01*
X139897419Y-69288408D02*
X138897419Y-69288408D01*
X138897419Y-69288408D02*
X138897419Y-69526503D01*
X138897419Y-69526503D02*
X138945038Y-69669360D01*
X138945038Y-69669360D02*
X139040276Y-69764598D01*
X139040276Y-69764598D02*
X139135514Y-69812217D01*
X139135514Y-69812217D02*
X139325990Y-69859836D01*
X139325990Y-69859836D02*
X139468847Y-69859836D01*
X139468847Y-69859836D02*
X139659323Y-69812217D01*
X139659323Y-69812217D02*
X139754561Y-69764598D01*
X139754561Y-69764598D02*
X139849800Y-69669360D01*
X139849800Y-69669360D02*
X139897419Y-69526503D01*
X139897419Y-69526503D02*
X139897419Y-69288408D01*
X139992657Y-70050313D02*
X139992657Y-70812217D01*
X138897419Y-70907456D02*
X139897419Y-71240789D01*
X139897419Y-71240789D02*
X138897419Y-71574122D01*
X139897419Y-71907456D02*
X138897419Y-71907456D01*
X138897419Y-71907456D02*
X138897419Y-72145551D01*
X138897419Y-72145551D02*
X138945038Y-72288408D01*
X138945038Y-72288408D02*
X139040276Y-72383646D01*
X139040276Y-72383646D02*
X139135514Y-72431265D01*
X139135514Y-72431265D02*
X139325990Y-72478884D01*
X139325990Y-72478884D02*
X139468847Y-72478884D01*
X139468847Y-72478884D02*
X139659323Y-72431265D01*
X139659323Y-72431265D02*
X139754561Y-72383646D01*
X139754561Y-72383646D02*
X139849800Y-72288408D01*
X139849800Y-72288408D02*
X139897419Y-72145551D01*
X139897419Y-72145551D02*
X139897419Y-71907456D01*
X139897419Y-72907456D02*
X138897419Y-72907456D01*
X138897419Y-72907456D02*
X138897419Y-73145551D01*
X138897419Y-73145551D02*
X138945038Y-73288408D01*
X138945038Y-73288408D02*
X139040276Y-73383646D01*
X139040276Y-73383646D02*
X139135514Y-73431265D01*
X139135514Y-73431265D02*
X139325990Y-73478884D01*
X139325990Y-73478884D02*
X139468847Y-73478884D01*
X139468847Y-73478884D02*
X139659323Y-73431265D01*
X139659323Y-73431265D02*
X139754561Y-73383646D01*
X139754561Y-73383646D02*
X139849800Y-73288408D01*
X139849800Y-73288408D02*
X139897419Y-73145551D01*
X139897419Y-73145551D02*
X139897419Y-72907456D01*
X141572419Y-62055074D02*
X141572419Y-61578884D01*
X141572419Y-61578884D02*
X140572419Y-61578884D01*
X141477180Y-62959836D02*
X141524800Y-62912217D01*
X141524800Y-62912217D02*
X141572419Y-62769360D01*
X141572419Y-62769360D02*
X141572419Y-62674122D01*
X141572419Y-62674122D02*
X141524800Y-62531265D01*
X141524800Y-62531265D02*
X141429561Y-62436027D01*
X141429561Y-62436027D02*
X141334323Y-62388408D01*
X141334323Y-62388408D02*
X141143847Y-62340789D01*
X141143847Y-62340789D02*
X141000990Y-62340789D01*
X141000990Y-62340789D02*
X140810514Y-62388408D01*
X140810514Y-62388408D02*
X140715276Y-62436027D01*
X140715276Y-62436027D02*
X140620038Y-62531265D01*
X140620038Y-62531265D02*
X140572419Y-62674122D01*
X140572419Y-62674122D02*
X140572419Y-62769360D01*
X140572419Y-62769360D02*
X140620038Y-62912217D01*
X140620038Y-62912217D02*
X140667657Y-62959836D01*
X141572419Y-63388408D02*
X140572419Y-63388408D01*
X140572419Y-63388408D02*
X140572419Y-63626503D01*
X140572419Y-63626503D02*
X140620038Y-63769360D01*
X140620038Y-63769360D02*
X140715276Y-63864598D01*
X140715276Y-63864598D02*
X140810514Y-63912217D01*
X140810514Y-63912217D02*
X141000990Y-63959836D01*
X141000990Y-63959836D02*
X141143847Y-63959836D01*
X141143847Y-63959836D02*
X141334323Y-63912217D01*
X141334323Y-63912217D02*
X141429561Y-63864598D01*
X141429561Y-63864598D02*
X141524800Y-63769360D01*
X141524800Y-63769360D02*
X141572419Y-63626503D01*
X141572419Y-63626503D02*
X141572419Y-63388408D01*
X141667657Y-64150313D02*
X141667657Y-64912217D01*
X141572419Y-65721741D02*
X141096228Y-65388408D01*
X141572419Y-65150313D02*
X140572419Y-65150313D01*
X140572419Y-65150313D02*
X140572419Y-65531265D01*
X140572419Y-65531265D02*
X140620038Y-65626503D01*
X140620038Y-65626503D02*
X140667657Y-65674122D01*
X140667657Y-65674122D02*
X140762895Y-65721741D01*
X140762895Y-65721741D02*
X140905752Y-65721741D01*
X140905752Y-65721741D02*
X141000990Y-65674122D01*
X141000990Y-65674122D02*
X141048609Y-65626503D01*
X141048609Y-65626503D02*
X141096228Y-65531265D01*
X141096228Y-65531265D02*
X141096228Y-65150313D01*
X141524800Y-66102694D02*
X141572419Y-66245551D01*
X141572419Y-66245551D02*
X141572419Y-66483646D01*
X141572419Y-66483646D02*
X141524800Y-66578884D01*
X141524800Y-66578884D02*
X141477180Y-66626503D01*
X141477180Y-66626503D02*
X141381942Y-66674122D01*
X141381942Y-66674122D02*
X141286704Y-66674122D01*
X141286704Y-66674122D02*
X141191466Y-66626503D01*
X141191466Y-66626503D02*
X141143847Y-66578884D01*
X141143847Y-66578884D02*
X141096228Y-66483646D01*
X141096228Y-66483646D02*
X141048609Y-66293170D01*
X141048609Y-66293170D02*
X141000990Y-66197932D01*
X141000990Y-66197932D02*
X140953371Y-66150313D01*
X140953371Y-66150313D02*
X140858133Y-66102694D01*
X140858133Y-66102694D02*
X140762895Y-66102694D01*
X140762895Y-66102694D02*
X140667657Y-66150313D01*
X140667657Y-66150313D02*
X140620038Y-66197932D01*
X140620038Y-66197932D02*
X140572419Y-66293170D01*
X140572419Y-66293170D02*
X140572419Y-66531265D01*
X140572419Y-66531265D02*
X140620038Y-66674122D01*
X140572419Y-66959837D02*
X140572419Y-67531265D01*
X141572419Y-67245551D02*
X140572419Y-67245551D01*
X121471115Y-52747419D02*
X121471115Y-51747419D01*
X121471115Y-51747419D02*
X121137782Y-52461704D01*
X121137782Y-52461704D02*
X120804449Y-51747419D01*
X120804449Y-51747419D02*
X120804449Y-52747419D01*
X120328258Y-52747419D02*
X120328258Y-51747419D01*
X119899687Y-52699800D02*
X119756830Y-52747419D01*
X119756830Y-52747419D02*
X119518735Y-52747419D01*
X119518735Y-52747419D02*
X119423497Y-52699800D01*
X119423497Y-52699800D02*
X119375878Y-52652180D01*
X119375878Y-52652180D02*
X119328259Y-52556942D01*
X119328259Y-52556942D02*
X119328259Y-52461704D01*
X119328259Y-52461704D02*
X119375878Y-52366466D01*
X119375878Y-52366466D02*
X119423497Y-52318847D01*
X119423497Y-52318847D02*
X119518735Y-52271228D01*
X119518735Y-52271228D02*
X119709211Y-52223609D01*
X119709211Y-52223609D02*
X119804449Y-52175990D01*
X119804449Y-52175990D02*
X119852068Y-52128371D01*
X119852068Y-52128371D02*
X119899687Y-52033133D01*
X119899687Y-52033133D02*
X119899687Y-51937895D01*
X119899687Y-51937895D02*
X119852068Y-51842657D01*
X119852068Y-51842657D02*
X119804449Y-51795038D01*
X119804449Y-51795038D02*
X119709211Y-51747419D01*
X119709211Y-51747419D02*
X119471116Y-51747419D01*
X119471116Y-51747419D02*
X119328259Y-51795038D01*
X118709211Y-51747419D02*
X118518735Y-51747419D01*
X118518735Y-51747419D02*
X118423497Y-51795038D01*
X118423497Y-51795038D02*
X118328259Y-51890276D01*
X118328259Y-51890276D02*
X118280640Y-52080752D01*
X118280640Y-52080752D02*
X118280640Y-52414085D01*
X118280640Y-52414085D02*
X118328259Y-52604561D01*
X118328259Y-52604561D02*
X118423497Y-52699800D01*
X118423497Y-52699800D02*
X118518735Y-52747419D01*
X118518735Y-52747419D02*
X118709211Y-52747419D01*
X118709211Y-52747419D02*
X118804449Y-52699800D01*
X118804449Y-52699800D02*
X118899687Y-52604561D01*
X118899687Y-52604561D02*
X118947306Y-52414085D01*
X118947306Y-52414085D02*
X118947306Y-52080752D01*
X118947306Y-52080752D02*
X118899687Y-51890276D01*
X118899687Y-51890276D02*
X118804449Y-51795038D01*
X118804449Y-51795038D02*
X118709211Y-51747419D01*
X132422419Y-51555074D02*
X132422419Y-51078884D01*
X132422419Y-51078884D02*
X131422419Y-51078884D01*
X132327180Y-52459836D02*
X132374800Y-52412217D01*
X132374800Y-52412217D02*
X132422419Y-52269360D01*
X132422419Y-52269360D02*
X132422419Y-52174122D01*
X132422419Y-52174122D02*
X132374800Y-52031265D01*
X132374800Y-52031265D02*
X132279561Y-51936027D01*
X132279561Y-51936027D02*
X132184323Y-51888408D01*
X132184323Y-51888408D02*
X131993847Y-51840789D01*
X131993847Y-51840789D02*
X131850990Y-51840789D01*
X131850990Y-51840789D02*
X131660514Y-51888408D01*
X131660514Y-51888408D02*
X131565276Y-51936027D01*
X131565276Y-51936027D02*
X131470038Y-52031265D01*
X131470038Y-52031265D02*
X131422419Y-52174122D01*
X131422419Y-52174122D02*
X131422419Y-52269360D01*
X131422419Y-52269360D02*
X131470038Y-52412217D01*
X131470038Y-52412217D02*
X131517657Y-52459836D01*
X132422419Y-52888408D02*
X131422419Y-52888408D01*
X131422419Y-52888408D02*
X131422419Y-53126503D01*
X131422419Y-53126503D02*
X131470038Y-53269360D01*
X131470038Y-53269360D02*
X131565276Y-53364598D01*
X131565276Y-53364598D02*
X131660514Y-53412217D01*
X131660514Y-53412217D02*
X131850990Y-53459836D01*
X131850990Y-53459836D02*
X131993847Y-53459836D01*
X131993847Y-53459836D02*
X132184323Y-53412217D01*
X132184323Y-53412217D02*
X132279561Y-53364598D01*
X132279561Y-53364598D02*
X132374800Y-53269360D01*
X132374800Y-53269360D02*
X132422419Y-53126503D01*
X132422419Y-53126503D02*
X132422419Y-52888408D01*
X132517657Y-53650313D02*
X132517657Y-54412217D01*
X132327180Y-55221741D02*
X132374800Y-55174122D01*
X132374800Y-55174122D02*
X132422419Y-55031265D01*
X132422419Y-55031265D02*
X132422419Y-54936027D01*
X132422419Y-54936027D02*
X132374800Y-54793170D01*
X132374800Y-54793170D02*
X132279561Y-54697932D01*
X132279561Y-54697932D02*
X132184323Y-54650313D01*
X132184323Y-54650313D02*
X131993847Y-54602694D01*
X131993847Y-54602694D02*
X131850990Y-54602694D01*
X131850990Y-54602694D02*
X131660514Y-54650313D01*
X131660514Y-54650313D02*
X131565276Y-54697932D01*
X131565276Y-54697932D02*
X131470038Y-54793170D01*
X131470038Y-54793170D02*
X131422419Y-54936027D01*
X131422419Y-54936027D02*
X131422419Y-55031265D01*
X131422419Y-55031265D02*
X131470038Y-55174122D01*
X131470038Y-55174122D02*
X131517657Y-55221741D01*
X132374800Y-55602694D02*
X132422419Y-55745551D01*
X132422419Y-55745551D02*
X132422419Y-55983646D01*
X132422419Y-55983646D02*
X132374800Y-56078884D01*
X132374800Y-56078884D02*
X132327180Y-56126503D01*
X132327180Y-56126503D02*
X132231942Y-56174122D01*
X132231942Y-56174122D02*
X132136704Y-56174122D01*
X132136704Y-56174122D02*
X132041466Y-56126503D01*
X132041466Y-56126503D02*
X131993847Y-56078884D01*
X131993847Y-56078884D02*
X131946228Y-55983646D01*
X131946228Y-55983646D02*
X131898609Y-55793170D01*
X131898609Y-55793170D02*
X131850990Y-55697932D01*
X131850990Y-55697932D02*
X131803371Y-55650313D01*
X131803371Y-55650313D02*
X131708133Y-55602694D01*
X131708133Y-55602694D02*
X131612895Y-55602694D01*
X131612895Y-55602694D02*
X131517657Y-55650313D01*
X131517657Y-55650313D02*
X131470038Y-55697932D01*
X131470038Y-55697932D02*
X131422419Y-55793170D01*
X131422419Y-55793170D02*
X131422419Y-56031265D01*
X131422419Y-56031265D02*
X131470038Y-56174122D01*
X135397419Y-51355074D02*
X135397419Y-50878884D01*
X135397419Y-50878884D02*
X134397419Y-50878884D01*
X135302180Y-52259836D02*
X135349800Y-52212217D01*
X135349800Y-52212217D02*
X135397419Y-52069360D01*
X135397419Y-52069360D02*
X135397419Y-51974122D01*
X135397419Y-51974122D02*
X135349800Y-51831265D01*
X135349800Y-51831265D02*
X135254561Y-51736027D01*
X135254561Y-51736027D02*
X135159323Y-51688408D01*
X135159323Y-51688408D02*
X134968847Y-51640789D01*
X134968847Y-51640789D02*
X134825990Y-51640789D01*
X134825990Y-51640789D02*
X134635514Y-51688408D01*
X134635514Y-51688408D02*
X134540276Y-51736027D01*
X134540276Y-51736027D02*
X134445038Y-51831265D01*
X134445038Y-51831265D02*
X134397419Y-51974122D01*
X134397419Y-51974122D02*
X134397419Y-52069360D01*
X134397419Y-52069360D02*
X134445038Y-52212217D01*
X134445038Y-52212217D02*
X134492657Y-52259836D01*
X135397419Y-52688408D02*
X134397419Y-52688408D01*
X134397419Y-52688408D02*
X134397419Y-52926503D01*
X134397419Y-52926503D02*
X134445038Y-53069360D01*
X134445038Y-53069360D02*
X134540276Y-53164598D01*
X134540276Y-53164598D02*
X134635514Y-53212217D01*
X134635514Y-53212217D02*
X134825990Y-53259836D01*
X134825990Y-53259836D02*
X134968847Y-53259836D01*
X134968847Y-53259836D02*
X135159323Y-53212217D01*
X135159323Y-53212217D02*
X135254561Y-53164598D01*
X135254561Y-53164598D02*
X135349800Y-53069360D01*
X135349800Y-53069360D02*
X135397419Y-52926503D01*
X135397419Y-52926503D02*
X135397419Y-52688408D01*
X135492657Y-53450313D02*
X135492657Y-54212217D01*
X135397419Y-54926503D02*
X135397419Y-54450313D01*
X135397419Y-54450313D02*
X134397419Y-54450313D01*
X134873609Y-55259837D02*
X134873609Y-55593170D01*
X135397419Y-55736027D02*
X135397419Y-55259837D01*
X135397419Y-55259837D02*
X134397419Y-55259837D01*
X134397419Y-55259837D02*
X134397419Y-55736027D01*
X135397419Y-56164599D02*
X134397419Y-56164599D01*
X134397419Y-56164599D02*
X134397419Y-56402694D01*
X134397419Y-56402694D02*
X134445038Y-56545551D01*
X134445038Y-56545551D02*
X134540276Y-56640789D01*
X134540276Y-56640789D02*
X134635514Y-56688408D01*
X134635514Y-56688408D02*
X134825990Y-56736027D01*
X134825990Y-56736027D02*
X134968847Y-56736027D01*
X134968847Y-56736027D02*
X135159323Y-56688408D01*
X135159323Y-56688408D02*
X135254561Y-56640789D01*
X135254561Y-56640789D02*
X135349800Y-56545551D01*
X135349800Y-56545551D02*
X135397419Y-56402694D01*
X135397419Y-56402694D02*
X135397419Y-56164599D01*
X134349800Y-57878884D02*
X135635514Y-57021742D01*
X134873609Y-58545551D02*
X134921228Y-58688408D01*
X134921228Y-58688408D02*
X134968847Y-58736027D01*
X134968847Y-58736027D02*
X135064085Y-58783646D01*
X135064085Y-58783646D02*
X135206942Y-58783646D01*
X135206942Y-58783646D02*
X135302180Y-58736027D01*
X135302180Y-58736027D02*
X135349800Y-58688408D01*
X135349800Y-58688408D02*
X135397419Y-58593170D01*
X135397419Y-58593170D02*
X135397419Y-58212218D01*
X135397419Y-58212218D02*
X134397419Y-58212218D01*
X134397419Y-58212218D02*
X134397419Y-58545551D01*
X134397419Y-58545551D02*
X134445038Y-58640789D01*
X134445038Y-58640789D02*
X134492657Y-58688408D01*
X134492657Y-58688408D02*
X134587895Y-58736027D01*
X134587895Y-58736027D02*
X134683133Y-58736027D01*
X134683133Y-58736027D02*
X134778371Y-58688408D01*
X134778371Y-58688408D02*
X134825990Y-58640789D01*
X134825990Y-58640789D02*
X134873609Y-58545551D01*
X134873609Y-58545551D02*
X134873609Y-58212218D01*
X135397419Y-59688408D02*
X135397419Y-59212218D01*
X135397419Y-59212218D02*
X134397419Y-59212218D01*
X140147419Y-47305074D02*
X140147419Y-46828884D01*
X140147419Y-46828884D02*
X139147419Y-46828884D01*
X140052180Y-48209836D02*
X140099800Y-48162217D01*
X140099800Y-48162217D02*
X140147419Y-48019360D01*
X140147419Y-48019360D02*
X140147419Y-47924122D01*
X140147419Y-47924122D02*
X140099800Y-47781265D01*
X140099800Y-47781265D02*
X140004561Y-47686027D01*
X140004561Y-47686027D02*
X139909323Y-47638408D01*
X139909323Y-47638408D02*
X139718847Y-47590789D01*
X139718847Y-47590789D02*
X139575990Y-47590789D01*
X139575990Y-47590789D02*
X139385514Y-47638408D01*
X139385514Y-47638408D02*
X139290276Y-47686027D01*
X139290276Y-47686027D02*
X139195038Y-47781265D01*
X139195038Y-47781265D02*
X139147419Y-47924122D01*
X139147419Y-47924122D02*
X139147419Y-48019360D01*
X139147419Y-48019360D02*
X139195038Y-48162217D01*
X139195038Y-48162217D02*
X139242657Y-48209836D01*
X140147419Y-48638408D02*
X139147419Y-48638408D01*
X139147419Y-48638408D02*
X139147419Y-48876503D01*
X139147419Y-48876503D02*
X139195038Y-49019360D01*
X139195038Y-49019360D02*
X139290276Y-49114598D01*
X139290276Y-49114598D02*
X139385514Y-49162217D01*
X139385514Y-49162217D02*
X139575990Y-49209836D01*
X139575990Y-49209836D02*
X139718847Y-49209836D01*
X139718847Y-49209836D02*
X139909323Y-49162217D01*
X139909323Y-49162217D02*
X140004561Y-49114598D01*
X140004561Y-49114598D02*
X140099800Y-49019360D01*
X140099800Y-49019360D02*
X140147419Y-48876503D01*
X140147419Y-48876503D02*
X140147419Y-48638408D01*
X140242657Y-49400313D02*
X140242657Y-50162217D01*
X140147419Y-50400313D02*
X139147419Y-50400313D01*
X139147419Y-50400313D02*
X139147419Y-50638408D01*
X139147419Y-50638408D02*
X139195038Y-50781265D01*
X139195038Y-50781265D02*
X139290276Y-50876503D01*
X139290276Y-50876503D02*
X139385514Y-50924122D01*
X139385514Y-50924122D02*
X139575990Y-50971741D01*
X139575990Y-50971741D02*
X139718847Y-50971741D01*
X139718847Y-50971741D02*
X139909323Y-50924122D01*
X139909323Y-50924122D02*
X140004561Y-50876503D01*
X140004561Y-50876503D02*
X140099800Y-50781265D01*
X140099800Y-50781265D02*
X140147419Y-50638408D01*
X140147419Y-50638408D02*
X140147419Y-50400313D01*
X140052180Y-51971741D02*
X140099800Y-51924122D01*
X140099800Y-51924122D02*
X140147419Y-51781265D01*
X140147419Y-51781265D02*
X140147419Y-51686027D01*
X140147419Y-51686027D02*
X140099800Y-51543170D01*
X140099800Y-51543170D02*
X140004561Y-51447932D01*
X140004561Y-51447932D02*
X139909323Y-51400313D01*
X139909323Y-51400313D02*
X139718847Y-51352694D01*
X139718847Y-51352694D02*
X139575990Y-51352694D01*
X139575990Y-51352694D02*
X139385514Y-51400313D01*
X139385514Y-51400313D02*
X139290276Y-51447932D01*
X139290276Y-51447932D02*
X139195038Y-51543170D01*
X139195038Y-51543170D02*
X139147419Y-51686027D01*
X139147419Y-51686027D02*
X139147419Y-51781265D01*
X139147419Y-51781265D02*
X139195038Y-51924122D01*
X139195038Y-51924122D02*
X139242657Y-51971741D01*
D11*
%TO.C,C1*%
X122930000Y-69560000D02*
X122930000Y-71090000D01*
X124770000Y-69560000D02*
X124770000Y-71090000D01*
%TO.C,C3*%
X137195000Y-102800000D02*
G75*
G02*
X132955000Y-102800000I-2120000J0D01*
G01*
X132955000Y-102800000D02*
G75*
G02*
X137195000Y-102800000I2120000J0D01*
G01*
%TO.C,C2*%
X123255000Y-76115000D02*
X123255000Y-74585000D01*
X125095000Y-76115000D02*
X125095000Y-74585000D01*
%TD*%
M02*
